<svg version="1.1" id="Layer_1" xmlns="http://www.w3.org/2000/svg" xmlns:xlink="http://www.w3.org/1999/xlink" x="0px" y="0px"
	 width="100%" viewBox="0 0 1024 347" enable-background="new 0 0 1024 347" xml:space="preserve">
<path fill="#FFFFFF" opacity="1.000000" stroke="none" 
	d="
M643.000000,348.000000 
	C428.666718,348.000000 214.833405,348.000000 1.000086,348.000000 
	C1.000057,232.333389 1.000057,116.666786 1.000029,1.000133 
	C342.333221,1.000088 683.666443,1.000088 1024.999756,1.000044 
	C1024.999756,116.666527 1024.999756,232.333054 1024.999878,347.999786 
	C897.833313,348.000000 770.666687,348.000000 643.000000,348.000000 
M192.608841,94.710991 
	C192.608841,94.710991 192.691116,94.647385 192.204895,94.904739 
	C192.078705,95.247009 191.952515,95.589279 191.918839,95.933586 
	C191.918839,95.933586 191.888428,95.846184 191.334778,96.154892 
	C190.851410,97.081459 190.368042,98.008026 189.974731,98.967880 
	C189.974731,98.967880 189.925430,98.885498 189.415512,99.224976 
	C189.212280,99.796021 189.009033,100.367073 188.913025,100.938919 
	C188.913025,100.938919 188.880859,100.836617 188.339569,101.151291 
	C188.146805,101.739761 187.954056,102.328232 187.884094,102.922379 
	C187.884094,102.922379 187.846497,102.805336 187.311295,103.140396 
	C187.154724,103.745392 186.998154,104.350388 186.933838,104.952362 
	C186.933838,104.952362 186.905640,104.864456 186.313858,105.295265 
	C184.888550,113.062759 182.766739,120.780876 182.211731,128.610062 
	C181.495026,138.720474 182.027618,148.919693 182.027954,159.080658 
	C182.028412,173.572540 182.006088,188.064499 182.051529,202.556244 
	C182.069183,208.187439 183.926102,209.999191 189.462189,210.028824 
	C193.792969,210.051987 198.133926,210.202286 202.449722,209.946960 
	C204.055298,209.851974 205.602203,208.764969 207.058701,208.057770 
	C207.058701,208.057770 207.130753,208.175262 207.811951,207.760208 
	C208.193558,205.515366 208.899506,203.271561 208.906830,201.025497 
	C208.984665,177.142899 208.751312,153.257034 209.093430,129.379105 
	C209.176315,123.593285 211.056808,117.833214 212.023819,112.028641 
	C212.023819,112.028641 212.069031,112.109718 212.596375,111.795921 
	C212.814972,111.228889 213.033569,110.661850 213.126144,110.087051 
	C213.126144,110.087051 213.165955,110.206879 213.690643,109.940674 
	C213.963348,109.427765 214.236053,108.914856 214.200531,108.240211 
	C214.200531,108.240211 214.473755,108.455902 214.974854,108.194260 
	C215.469681,107.637360 215.964508,107.080460 216.394836,106.435188 
	C216.394836,106.435188 216.504166,106.439240 216.949677,106.245232 
	C217.231293,106.045532 217.396515,105.774773 217.484879,105.436722 
	C217.484879,105.436722 217.502792,105.472168 218.011002,105.204140 
	C218.697220,104.531258 219.383453,103.858376 220.696442,103.038857 
	C221.561234,102.458954 222.426025,101.879059 223.154251,101.221947 
	C223.154251,101.221947 223.159195,101.378746 223.949997,101.246513 
	C229.341156,100.187424 234.732330,99.128342 240.040298,98.049881 
	C240.040298,98.049881 240.040924,98.135300 240.572037,97.964729 
	C240.766388,97.658218 240.960739,97.351700 241.059570,97.044693 
	C241.059570,97.044693 241.082260,97.137482 241.790726,96.619797 
	C241.870178,90.221909 242.044464,83.822586 241.947968,77.427353 
	C241.928986,76.169449 240.864639,74.927322 240.141388,73.674080 
	C240.141388,73.674080 240.269501,73.733192 239.828430,73.093018 
	C235.571075,73.116058 231.313736,73.139091 226.474091,73.075005 
	C226.299988,73.165604 226.125885,73.256195 225.244995,73.520668 
	C220.739258,75.238060 216.233505,76.955444 211.823105,78.591164 
	C211.823105,78.591164 211.714035,78.529015 211.118591,78.656479 
	C210.649460,79.012726 210.180344,79.368965 209.868790,79.766365 
	C209.868790,79.766365 209.828857,79.608498 209.211639,79.721115 
	C208.711929,80.051331 208.212219,80.381538 207.782486,80.630127 
	C207.782486,80.630127 207.681870,80.592239 207.276001,80.703796 
	C207.276001,80.703796 206.998520,81.020309 206.337570,81.180298 
	C201.888672,85.451393 197.439758,89.722488 192.688995,94.236443 
	C192.688995,94.236443 192.585236,94.609703 192.608841,94.710991 
M190.714905,255.167618 
	C190.714905,255.167618 190.647964,255.283798 190.731155,255.689056 
	C190.731155,255.689056 191.005310,255.998886 191.185165,256.651581 
	C199.321594,265.460571 207.301025,274.490631 220.244995,277.713715 
	C224.306900,278.482483 228.364136,279.887482 232.431442,279.917236 
	C259.761932,280.117065 287.094696,280.052856 314.426300,279.956055 
	C316.036163,279.950348 317.642426,278.918823 319.368195,278.377014 
	C319.368195,278.377014 319.481018,278.340881 319.987946,278.132660 
	C320.195740,277.435760 320.403564,276.738831 321.012421,275.177429 
	C321.053009,270.381775 321.294281,265.575348 321.037018,260.795715 
	C320.931732,258.838898 319.748932,256.940063 318.901703,254.282074 
	C317.274933,253.895538 315.648132,253.508987 313.092712,252.966370 
	C286.380066,253.018402 259.667389,253.070435 232.176651,253.011292 
	C229.458054,252.380325 226.739456,251.749344 223.412720,250.755600 
	C218.149750,247.996399 213.042847,245.071487 210.865845,238.353302 
	C210.516159,238.124115 210.166489,237.894943 209.754944,237.806229 
	C209.754944,237.806229 209.802460,237.676193 209.805237,237.308029 
	C209.805237,237.308029 209.685852,236.959717 209.949127,236.600342 
	C209.949127,236.600342 209.858063,236.164230 209.935684,235.459427 
	C209.554703,233.352966 209.401367,231.169846 208.725403,229.162720 
	C208.112976,227.344238 206.930710,225.717682 205.064072,223.939499 
	C198.039841,224.065262 191.015610,224.191010 183.343674,224.656830 
	C180.575729,233.117920 183.529373,240.712326 186.931931,248.643112 
	C186.931931,248.643112 187.104355,249.006607 187.155731,249.628189 
	C187.737839,250.463486 188.319946,251.298782 188.932709,252.051758 
	C188.932709,252.051758 188.844971,252.047043 188.937622,252.650940 
	C189.268478,253.136398 189.599335,253.621872 189.969238,254.032928 
	C189.969238,254.032928 189.885818,254.043137 190.000504,254.588348 
	C190.268204,254.814941 190.535919,255.041550 190.714905,255.167618 
M232.978165,135.987228 
	C232.978165,135.987228 232.946487,135.918625 232.474716,136.276184 
	C232.348633,136.835190 232.222534,137.394211 231.998901,138.887207 
	C232.036758,143.599197 232.074631,148.311172 232.032700,153.798126 
	C232.656219,155.652527 233.279739,157.506927 234.359192,160.002533 
	C242.407028,160.270233 250.454224,160.627731 258.503571,160.686142 
	C259.455109,160.693039 261.242188,159.066208 261.247772,158.187881 
	C261.297546,150.320923 261.070740,142.450699 260.784515,134.586548 
	C260.764984,134.050034 259.610382,133.554825 258.534851,132.840256 
	C258.534851,132.840256 258.071014,132.677902 257.398132,132.174408 
	C251.259293,132.145950 245.120468,132.117477 238.271820,132.022522 
	C236.827652,132.670715 235.383469,133.318924 233.997849,133.996780 
	C233.997849,133.996780 233.967758,133.938446 233.454300,134.269943 
	C233.270493,134.840164 233.086685,135.410400 232.978165,135.987228 
M344.712250,133.466034 
	C344.155273,133.228928 343.598297,132.991821 342.661316,132.313263 
	C342.097076,132.237106 341.532867,132.160965 340.499451,132.021271 
	C340.499451,132.021271 340.029205,132.075867 339.093750,131.978424 
	C333.044037,132.208191 326.994293,132.437958 320.349121,132.851288 
	C319.874512,133.220596 319.399933,133.589920 318.993408,133.992188 
	C318.993408,133.992188 318.958984,133.924835 318.399170,134.232635 
	C318.110046,134.801727 317.820892,135.370804 317.134491,136.670837 
	C317.075348,142.483963 316.868561,148.300400 316.999512,154.109238 
	C317.124725,159.661835 318.756683,161.106537 324.317200,161.151810 
	C329.469391,161.193771 334.642548,160.872910 339.768463,161.241180 
	C344.050842,161.548859 346.520416,159.035522 346.718353,155.816330 
	C347.120972,149.269333 346.378967,142.651947 346.111267,135.426544 
	C345.749115,134.934158 345.386932,134.441772 345.000427,133.999680 
	C345.000427,133.999680 345.050751,133.975311 344.712250,133.466034 
M372.021301,129.586472 
	C372.325256,129.785553 372.629181,129.984634 372.944275,130.087723 
	C372.944275,130.087723 372.849915,130.108627 373.399841,130.788025 
	C380.628540,130.541626 387.857269,130.295242 395.013458,130.009735 
	C395.013458,130.009735 395.047729,130.084641 395.775909,129.730362 
	C395.816895,124.497963 395.857880,119.265572 395.990204,113.379486 
	C395.653839,112.584793 395.317474,111.790100 395.013947,110.504677 
	C395.013947,110.504677 394.871826,110.033836 394.960510,109.441185 
	C394.659454,108.955772 394.358368,108.470360 394.016052,107.486969 
	C394.016052,107.486969 393.849274,107.015907 393.845367,106.296478 
	C384.763062,84.785027 365.736389,72.091896 342.404022,72.060585 
	C316.414612,72.025711 290.424896,72.001183 264.436127,72.132248 
	C262.339966,72.142822 260.250031,73.391891 257.524750,74.631752 
	C257.666168,82.116211 257.807587,89.600677 257.991089,97.011749 
	C257.991089,97.011749 257.915863,97.050537 258.271759,97.774834 
	C259.641205,98.186569 261.009430,98.950439 262.380310,98.955254 
	C275.237946,99.000404 288.096008,98.915657 301.763275,99.015587 
	C302.855377,98.966042 303.947449,98.916496 305.817566,98.983521 
	C306.863525,98.944893 307.909454,98.906258 309.719727,99.014931 
	C310.493256,98.965866 311.266754,98.916801 312.965668,98.985291 
	C324.630249,98.953827 336.294830,98.922356 348.631439,99.063332 
	C349.091980,99.032387 349.552490,99.001442 350.585052,99.384178 
	C352.386719,99.899323 354.188385,100.414467 356.519867,101.327499 
	C358.023346,102.220833 359.526855,103.114159 361.376556,104.506073 
	C362.217804,105.059647 363.059021,105.613228 363.920776,106.076302 
	C363.920776,106.076302 363.831299,106.100853 364.018890,106.691956 
	C364.677124,107.469231 365.335358,108.246506 366.075043,109.500946 
	C366.219910,109.826584 366.469116,110.012077 366.993866,110.702614 
	C367.653687,111.830605 368.313507,112.958595 368.979279,114.567192 
	C368.979279,114.567192 369.147797,115.017326 369.170685,115.757393 
	C369.791138,117.832100 370.411560,119.906807 370.912872,122.789070 
	C370.980042,123.871391 371.047241,124.953712 371.003876,126.727493 
	C371.304565,127.531754 371.605286,128.336014 371.935181,129.054718 
	C371.935181,129.054718 371.844818,129.051575 372.021301,129.586472 
M338.418488,254.023544 
	C338.216797,254.324615 338.015137,254.625687 337.914429,254.921661 
	C337.914429,254.921661 337.874451,254.828766 337.204254,255.265518 
	C337.027313,262.251953 336.850372,269.238373 337.106659,276.811584 
	C340.659393,281.028717 345.031311,280.666748 349.698212,279.193359 
	C351.549683,278.608826 353.560760,278.543060 355.433838,278.011017 
	C359.880615,276.748016 364.916199,276.272614 368.569641,273.793060 
	C374.547241,269.736084 379.682617,264.412292 385.050720,259.489288 
	C392.817261,252.366638 394.985291,242.695023 396.962677,231.995514 
	C396.975189,205.094193 397.003357,178.192825 396.959717,151.291595 
	C396.957184,149.739426 396.370087,148.188217 395.945892,145.935791 
	C394.851379,145.341782 393.748840,144.225006 392.663727,144.241730 
	C387.130707,144.326981 381.596130,144.624374 376.076294,145.037079 
	C374.676880,145.141724 373.329376,145.940140 371.223511,147.012070 
	C371.067413,148.814941 370.778259,150.617599 370.775452,152.420715 
	C370.739990,174.991089 370.739563,197.561539 370.748596,220.131958 
	C370.749939,223.446686 370.846710,226.761398 370.954865,230.833954 
	C370.385437,232.334244 369.743896,233.811615 369.258392,235.338577 
	C366.285492,244.688583 360.543671,250.993362 349.643280,252.775314 
	C346.058411,253.161972 342.473541,253.548630 338.967133,253.955475 
	C338.967133,253.955475 338.959717,253.874802 338.418488,254.023544 
M302.897400,134.432587 
	C302.620789,134.169601 302.344147,133.906631 301.576202,133.047928 
	C293.853973,132.812286 286.114716,132.237549 278.423706,132.623795 
	C276.863739,132.702118 274.467621,136.292786 274.224487,138.462296 
	C273.616638,143.886139 273.838898,149.432129 274.088074,154.912735 
	C274.257294,158.634857 276.132019,161.162338 280.357574,161.128372 
	C286.514648,161.078873 292.679749,161.265427 298.824188,160.979660 
	C300.277313,160.912094 301.661621,159.364868 303.682739,157.790482 
	C303.471924,150.167969 303.261139,142.545441 303.012787,134.987488 
	C303.012787,134.987488 303.086609,134.976227 302.897400,134.432587 
M259.780518,172.407852 
	C259.197876,172.294037 258.615204,172.180237 257.322571,171.741394 
	C250.218018,171.821686 243.113480,171.901978 235.377991,171.882843 
	C234.891708,172.239166 234.405441,172.595490 233.991241,172.991928 
	C233.991241,172.991928 233.951019,172.919922 233.289627,173.354233 
	C232.875107,180.307739 232.355057,187.258041 232.142883,194.217712 
	C232.104492,195.477646 233.328873,196.776077 233.998322,198.001816 
	C233.998322,198.001816 233.943314,198.029694 234.421188,198.649094 
	C242.312759,198.920090 250.203598,199.225632 258.097351,199.396469 
	C258.727936,199.410095 259.378693,198.493484 259.999023,197.998779 
	C259.999023,197.998779 260.009064,198.019836 260.628967,197.547806 
	C261.032990,190.281570 261.505646,183.017700 261.755402,175.746170 
	C261.787109,174.823624 260.652161,173.860992 260.014923,172.998413 
	C260.014923,172.998413 260.086700,172.940765 259.780518,172.407852 
M628.356750,190.277039 
	C623.245178,182.188522 618.160706,174.082703 613.012329,166.017670 
	C609.730774,160.877060 606.361938,155.791992 603.018311,150.691208 
	C600.622192,147.035873 596.896667,147.658768 593.574219,148.328400 
	C592.504150,148.544067 591.197754,151.027557 591.179382,152.488419 
	C590.999084,166.813354 591.033936,181.141632 591.132141,195.468140 
	C591.140015,196.606949 591.815735,198.384155 592.645813,198.721695 
	C593.851074,199.211761 596.038818,199.197189 596.786743,198.417984 
	C597.728577,197.436829 597.940918,195.469833 597.950928,193.924850 
	C598.034180,181.091370 597.998108,168.257111 597.998108,154.651077 
	C604.838501,165.274094 611.150330,175.097748 617.486511,184.905655 
	C620.080505,188.920898 622.235291,193.394730 625.546997,196.701370 
	C627.338684,198.490356 631.136292,198.645142 634.049316,198.717453 
	C634.973511,198.740402 636.778564,196.126770 636.797363,194.701416 
	C636.988525,180.211533 636.963989,165.716782 636.738098,151.227478 
	C636.720947,150.131195 634.684998,148.193207 633.620483,148.215607 
	C632.392212,148.241470 630.920410,149.825684 630.093445,151.086716 
	C629.557861,151.903381 629.985596,153.353302 629.985596,154.519455 
	C629.985413,166.014526 630.004944,177.509689 629.936096,189.004349 
	C629.932251,189.644470 629.199280,190.280212 628.356750,190.277039 
M751.484497,149.875885 
	C746.372375,148.922348 741.190735,146.895767 736.161499,147.221649 
	C722.480530,148.108078 713.866394,154.959824 712.064941,168.166733 
	C709.889465,184.115387 716.293396,195.519012 730.033936,198.386841 
	C738.232666,200.098053 745.618652,201.679901 749.859741,209.667969 
	C749.998596,209.929504 750.385193,210.221786 750.658325,210.223816 
	C752.658264,210.238846 754.658813,210.183334 756.659058,210.150101 
	C756.121338,208.624619 755.890930,206.877747 754.983765,205.618423 
	C752.912537,202.743256 750.509888,200.106812 748.180115,197.298889 
	C759.723999,194.172165 764.223755,185.738419 764.733521,175.075302 
	C765.230042,164.687515 762.221802,155.471344 751.484497,149.875885 
M866.851868,198.776062 
	C869.023804,193.957672 868.450806,192.925735 863.355408,192.889572 
	C855.457153,192.833496 847.558167,192.874786 839.571289,192.874786 
	C839.571289,186.858215 839.571289,181.579453 839.571289,175.934509 
	C846.464844,175.934509 853.263000,175.942245 860.061218,175.930206 
	C862.337219,175.926163 865.011902,176.523727 864.989807,172.825760 
	C864.966431,168.920868 862.004333,169.998749 859.919434,169.966888 
	C853.167114,169.863693 846.412292,169.928345 839.630249,169.928345 
	C839.630249,164.330307 839.630249,159.403824 839.630249,154.068436 
	C847.466736,154.068436 855.101196,154.245209 862.713623,153.915314 
	C864.188599,153.851395 865.577820,151.809830 867.006531,150.680511 
	C865.557861,149.782974 864.131348,148.153595 862.656921,148.109055 
	C854.341492,147.858017 846.010742,148.135620 837.693176,147.922287 
	C833.798279,147.822403 832.905701,149.537491 832.936951,153.029984 
	C833.060730,166.845093 833.075928,180.662918 832.925598,194.477509 
	C832.887817,197.947861 833.987000,199.154388 837.512390,199.079132 
	C846.996338,198.876617 856.487305,199.002045 866.851868,198.776062 
M274.001587,178.854889 
	C274.005310,183.340469 273.946259,187.827225 274.029205,192.311340 
	C274.125183,197.500565 275.967560,199.679459 281.115723,199.941849 
	C286.583862,200.220551 292.081085,200.130722 297.558350,199.963394 
	C301.873199,199.831589 304.257935,197.647095 304.127045,193.021484 
	C303.995575,188.373749 304.126862,183.718948 304.119751,179.067261 
	C304.109680,172.468582 301.877380,170.472900 295.325562,171.002380 
	C290.398956,171.400528 285.453827,172.017410 280.532288,171.898880 
	C276.007233,171.789902 274.082062,173.661896 274.001587,178.854889 
M815.574646,147.990814 
	C814.712708,149.476486 813.146851,150.942627 813.104980,152.451035 
	C812.864807,161.104324 813.022583,169.767838 812.973633,178.427490 
	C812.934326,185.381699 809.195435,191.385895 803.423950,193.057693 
	C792.275452,196.287048 782.884827,192.162979 782.096191,177.627457 
	C781.654724,169.491058 781.805176,161.303680 782.095581,153.153778 
	C782.259521,148.553909 780.774658,146.937759 775.692749,148.567535 
	C775.692749,157.492554 775.691589,166.601028 775.692993,175.709518 
	C775.695435,190.823166 780.321228,197.328461 794.877747,199.600479 
	C804.832764,201.154282 817.186829,196.793900 818.800171,183.525253 
	C820.095947,172.867935 819.588501,161.979935 819.588684,151.194260 
	C819.588745,150.125565 817.547485,149.056839 815.574646,147.990814 
M579.001160,150.528030 
	C577.842285,149.683975 576.699463,148.134903 575.521973,148.108032 
	C566.533997,147.903061 557.538513,148.055862 548.546875,147.958618 
	C545.726318,147.928116 544.708862,149.145294 544.718750,151.828308 
	C544.772034,166.316147 544.690857,180.805298 544.904358,195.290344 
	C544.922791,196.539841 546.721130,198.807434 547.741455,198.835648 
	C557.559326,199.107117 567.389648,199.088226 577.209595,198.858704 
	C578.163940,198.836411 579.568054,196.942200 579.815063,195.724503 
	C579.962524,194.997726 578.419373,193.460693 577.351257,193.073105 
	C576.019897,192.589996 574.395020,192.896698 572.896912,192.895233 
	C565.647034,192.888123 558.397217,192.892029 551.342896,192.892029 
	C551.342896,186.800583 551.342896,181.387161 551.342896,175.929794 
	C558.669739,175.929794 565.666077,175.783463 572.651184,175.999985 
	C575.547241,176.089767 576.888916,174.673889 576.567749,172.339859 
	C576.435974,171.382401 574.058289,170.101593 572.666870,170.056259 
	C565.567078,169.824921 558.455688,169.949417 551.306763,169.949417 
	C551.306763,164.407928 551.306763,159.353836 551.306763,154.069077 
	C559.242249,154.069077 566.884216,154.211487 574.512329,153.948608 
	C576.033203,153.896179 577.500732,152.294739 579.001160,150.528030 
M454.782867,154.074326 
	C461.940338,154.063156 469.104156,154.202530 476.249481,153.902084 
	C477.536713,153.847977 478.747803,151.983597 479.994080,150.955017 
	C478.812134,149.968262 477.652344,148.158539 476.444702,148.126022 
	C467.462738,147.884247 458.467072,147.862869 449.487671,148.148697 
	C448.249542,148.188095 446.049469,150.282333 446.030701,151.453094 
	C445.796051,166.097122 445.801270,180.747543 446.032776,195.391769 
	C446.052094,196.612564 448.122070,198.809296 449.290436,198.844284 
	C458.769775,199.128021 468.263489,199.096893 477.746277,198.877991 
	C478.848755,198.852554 480.637726,197.239288 480.854553,196.119415 
	C481.473816,192.920593 478.965546,192.885574 476.696045,192.887512 
	C468.608215,192.894440 460.520386,192.890228 452.459961,192.890228 
	C452.459961,186.830841 452.459961,181.435745 452.459961,175.927261 
	C459.412537,175.927261 466.072662,175.750702 472.718048,175.986954 
	C477.452301,176.155243 478.159332,174.078339 476.677429,169.789856 
	C468.628204,169.789856 460.551941,169.789856 452.154205,169.789856 
	C452.154205,164.890427 452.086243,160.426666 452.229156,155.969666 
	C452.250031,155.317993 453.275635,154.698517 454.782867,154.074326 
M523.709045,163.047028 
	C519.838928,172.774902 515.968872,182.502777 512.014709,192.441925 
	C505.917328,178.266190 500.162018,164.711105 494.241669,151.228455 
	C492.476990,147.209656 490.072937,146.831360 486.085175,149.521637 
	C492.523590,164.383881 498.965454,179.264191 505.417999,194.139862 
	C506.633759,196.942688 507.982330,199.182449 511.806305,199.128937 
	C515.614502,199.075668 516.925293,196.901886 518.087830,193.999557 
	C522.049255,184.109741 526.062073,174.240494 530.060974,164.365692 
	C532.186218,159.117722 534.323242,153.874466 536.492432,148.536804 
	C531.609802,147.061798 528.880310,148.144165 527.623901,152.694427 
	C526.715332,155.984909 525.209961,159.110596 523.709045,163.047028 
M679.290161,154.047989 
	C680.123047,154.047211 681.129456,154.348312 681.755737,153.988159 
	C683.526245,152.969986 685.140930,151.680786 686.817017,150.498352 
	C685.185913,149.658401 683.569031,148.125061 681.921326,148.091080 
	C671.265381,147.871414 660.600403,147.869858 649.944519,148.091766 
	C648.271423,148.126617 646.629517,149.661621 644.973206,150.502930 
	C646.650208,151.679718 648.226685,153.643143 650.024780,153.873032 
	C654.035828,154.385910 658.157593,154.033279 662.231140,154.033279 
	C662.231140,168.067017 662.299316,181.391006 662.181152,194.713348 
	C662.153137,197.876312 663.161011,199.858917 666.378662,198.839157 
	C667.575073,198.460007 668.849304,196.077087 668.870483,194.590576 
	C669.061646,181.163956 668.982300,167.733490 668.982300,154.047256 
	C672.413574,154.047256 675.381775,154.047256 679.290161,154.047989 
M700.824707,173.500061 
	C700.830994,166.360107 700.830627,159.220154 700.847473,152.080231 
	C700.852966,149.743744 700.663879,147.847366 697.433777,147.908203 
	C694.377502,147.965744 693.944214,149.561234 693.952881,152.052109 
	C694.002625,166.331833 693.998718,180.611923 693.954041,194.891693 
	C693.946411,197.339157 694.282043,199.077972 697.384399,199.075058 
	C700.445312,199.072189 700.886230,197.413467 700.858521,194.923340 
	C700.782715,188.116287 700.827942,181.307892 700.824707,173.500061 
z"/>
<path fill="#7C4BBB" opacity="1.000000" stroke="none" 
	d="
M371.958008,146.419754 
	C373.329376,145.940140 374.676880,145.141724 376.076294,145.037079 
	C381.596130,144.624374 387.130707,144.326981 392.663727,144.241730 
	C393.748840,144.225006 394.851379,145.341782 395.984741,146.780792 
	C396.016144,174.478958 395.994537,201.332153 396.037018,228.185257 
	C396.039490,229.761917 396.558899,231.337753 396.837769,232.913971 
	C394.985291,242.695023 392.817261,252.366638 385.050720,259.489288 
	C379.682617,264.412292 374.547241,269.736084 368.569641,273.793060 
	C364.916199,276.272614 359.880615,276.748016 355.433838,278.011017 
	C353.560760,278.543060 351.549683,278.608826 349.698212,279.193359 
	C345.031311,280.666748 340.659393,281.028717 337.233734,276.233917 
	C337.532013,268.713745 337.703217,261.771271 337.874451,254.828766 
	C337.874451,254.828766 337.914429,254.921661 338.135529,254.849854 
	C338.557648,254.476959 338.758698,254.175888 338.959717,253.874802 
	C338.959717,253.874802 338.967133,253.955475 339.353302,253.968140 
	C341.315979,254.212036 342.953583,254.823364 344.454102,254.582016 
	C346.509949,254.251312 348.461731,253.273331 350.458099,252.572754 
	C360.543671,250.993362 366.285492,244.688583 369.258392,235.338577 
	C369.743896,233.811615 370.385437,232.334244 371.247559,230.173096 
	C371.686798,228.042404 371.960083,226.572647 371.961121,225.102692 
	C371.979736,198.875061 371.965332,172.647400 371.958008,146.419754 
z"/>
<path fill="#22C8C9" opacity="1.000000" stroke="none" 
	d="
M187.104355,249.006607 
	C187.104355,249.006607 186.931931,248.643112 186.949493,248.004364 
	C185.975174,239.682663 184.983276,231.999710 183.991379,224.316772 
	C191.015610,224.191010 198.039841,224.065262 205.579315,224.374634 
	C206.396103,226.542725 206.484695,228.349335 207.052216,229.990280 
	C207.787857,232.117294 208.905090,234.112366 209.858063,236.164230 
	C209.858063,236.164230 209.949127,236.600342 209.527435,236.826584 
	C209.337982,237.260620 209.570221,237.468414 209.802460,237.676193 
	C209.802460,237.676193 209.754944,237.806229 209.918213,238.000946 
	C210.358948,238.458603 210.636429,238.721558 210.913910,238.984512 
	C213.042847,245.071487 218.149750,247.996399 223.788971,251.292084 
	C227.095078,252.259872 230.024902,252.691177 232.954742,253.122467 
	C259.667389,253.070435 286.380066,253.018402 313.629456,253.406799 
	C315.796204,254.236435 317.426270,254.625626 319.056305,255.014832 
	C319.748932,256.940063 320.931732,258.838898 321.037018,260.795715 
	C321.294281,265.575348 321.053009,270.381775 320.509369,275.693665 
	C319.831238,276.920227 319.656128,277.630554 319.481018,278.340881 
	C319.481018,278.340881 319.368195,278.377014 318.831726,278.244507 
	C285.492523,277.752625 252.689774,277.393219 219.887024,277.033844 
	C207.301025,274.490631 199.321594,265.460571 191.261841,256.212891 
	C191.108322,255.610748 190.878143,255.447266 190.647964,255.283798 
	C190.647964,255.283798 190.714905,255.167618 190.722778,254.939926 
	C190.449036,254.489197 190.167435,254.266174 189.885818,254.043137 
	C189.885818,254.043137 189.969238,254.032928 189.947266,253.749634 
	C189.565201,252.993256 189.205078,252.520142 188.844971,252.047043 
	C188.844971,252.047043 188.932709,252.051758 188.944519,251.734146 
	C188.339005,250.613235 187.721680,249.809921 187.104355,249.006607 
z"/>
<path fill="#D815CD" opacity="1.000000" stroke="none" 
	d="
M361.030365,104.007477 
	C359.526855,103.114159 358.023346,102.220833 356.194977,100.786865 
	C353.917725,99.820992 351.965393,99.395752 350.013031,98.970505 
	C349.552490,99.001442 349.091980,99.032387 347.990753,98.699631 
	C337.969360,98.223244 328.588654,98.047462 319.207886,98.041580 
	C316.818848,98.040077 314.429504,98.577782 312.040283,98.867737 
	C311.266754,98.916801 310.493256,98.965866 309.123962,98.703026 
	C307.365295,98.549736 306.202423,98.708351 305.039551,98.866959 
	C303.947449,98.916496 302.855377,98.966042 301.050842,98.669266 
	C298.372192,98.214554 296.407257,98.058998 294.439575,98.005493 
	C282.265350,97.674408 270.090515,97.366295 257.915863,97.050537 
	C257.915863,97.050537 257.991089,97.011749 257.983643,96.573402 
	C257.984039,94.306053 257.909149,92.472221 258.015778,90.648987 
	C258.301483,85.762558 258.664948,80.880669 259.191528,76.267624 
	C260.587189,76.813759 262.667419,77.608025 262.857544,77.286118 
	C265.307892,73.136719 268.800720,74.732307 272.426605,74.765160 
	C283.923584,74.869347 295.425293,74.187202 306.927979,74.058609 
	C311.366669,74.008972 315.933777,75.438591 320.233521,74.796303 
	C334.447296,72.673080 348.420105,74.745247 362.111420,77.587120 
	C367.784851,78.764740 373.110565,83.434280 377.693237,87.525284 
	C382.039398,91.405136 385.236450,96.582016 388.879364,101.235046 
	C390.332886,103.091660 391.626984,105.073112 393.109924,107.220970 
	C393.503265,107.624443 393.780304,107.804688 394.057312,107.984940 
	C394.358368,108.470360 394.659454,108.955772 394.765900,109.835182 
	C394.707916,110.484581 394.844543,110.739983 394.981140,110.995392 
	C395.317474,111.790100 395.653839,112.584793 395.676971,113.972946 
	C395.258392,119.739143 395.153046,124.911896 395.047729,130.084641 
	C395.047729,130.084641 395.013458,130.009735 394.574463,130.015717 
	C387.040283,130.050674 379.945099,130.079651 372.849915,130.108643 
	C372.849915,130.108627 372.944275,130.087723 372.847229,129.871582 
	C372.448364,129.454163 372.146606,129.252869 371.844818,129.051575 
	C371.844818,129.051575 371.935181,129.054718 371.949036,128.754852 
	C371.680054,127.648674 371.397247,126.842354 371.114441,126.036026 
	C371.047241,124.953712 370.980042,123.871391 371.243408,122.143974 
	C372.316223,118.757797 372.321960,116.292419 369.147797,115.017326 
	C369.147797,115.017326 368.979279,114.567192 368.976013,113.934921 
	C368.256073,112.220901 367.539368,111.139160 366.822662,110.057419 
	C366.469116,110.012077 366.219910,109.826584 366.023621,108.897400 
	C365.258545,107.562859 364.544922,106.831863 363.831299,106.100861 
	C363.831299,106.100853 363.920776,106.076302 363.898682,105.762779 
	C362.927856,104.968666 361.979126,104.488075 361.030365,104.007477 
z"/>
<path fill="#FF6714" opacity="1.000000" stroke="none" 
	d="
M192.990845,93.993591 
	C197.439758,89.722488 201.888672,85.451393 206.789825,81.265892 
	C207.388672,81.098404 207.535263,80.845322 207.681870,80.592239 
	C207.681870,80.592239 207.782486,80.630127 208.098877,80.743744 
	C208.886459,80.441071 209.357651,80.024788 209.828857,79.608498 
	C209.828857,79.608498 209.868790,79.766365 210.144958,79.812035 
	C210.852081,79.414810 211.283051,78.971909 211.714035,78.529007 
	C211.714035,78.529015 211.823105,78.591164 212.167770,78.713562 
	C216.992218,77.006241 221.472000,75.176521 225.951782,73.346794 
	C226.125885,73.256195 226.299988,73.165604 227.072357,73.386421 
	C231.870255,73.709625 236.069870,73.721413 240.269501,73.733192 
	C240.269501,73.733192 240.141388,73.674080 240.154007,74.117767 
	C240.471832,82.086792 240.777039,89.612137 241.082260,97.137482 
	C241.082260,97.137482 241.059570,97.044693 240.847595,97.140350 
	C240.437393,97.535774 240.239166,97.835533 240.040924,98.135300 
	C240.040924,98.135300 240.040298,98.049881 239.611328,98.036453 
	C237.382477,98.010925 235.494568,97.642220 233.800964,98.060448 
	C230.200165,98.949661 226.700378,100.248070 223.159195,101.378746 
	C223.159195,101.378746 223.154251,101.221947 222.877533,101.179657 
	C221.734055,101.425011 220.867294,101.712669 219.702515,102.141212 
	C218.770569,103.345459 218.136673,104.408813 217.502792,105.472168 
	C217.502792,105.472168 217.484879,105.436722 217.150726,105.404198 
	C216.712433,105.727531 216.608307,106.083389 216.504166,106.439240 
	C216.504166,106.439240 216.394836,106.435188 216.078522,106.397995 
	C215.332733,107.059174 214.903244,107.757538 214.473755,108.455902 
	C214.473755,108.455902 214.200531,108.240211 214.004120,108.318558 
	C213.593781,109.000229 213.379868,109.603554 213.165955,110.206879 
	C213.165955,110.206879 213.126144,110.087051 212.885986,110.209915 
	C212.453552,110.925087 212.261292,111.517403 212.069031,112.109718 
	C212.069031,112.109718 212.023819,112.028641 211.698288,112.078354 
	C209.914810,116.563316 207.251877,120.983391 207.195755,125.436302 
	C206.848297,153.011841 207.086823,180.594788 207.130753,208.175262 
	C207.130753,208.175262 207.058701,208.057770 206.636444,208.047897 
	C200.568222,208.025391 194.909836,207.781677 189.280762,208.084000 
	C185.722137,208.275116 184.529709,206.493622 184.131042,203.570267 
	C183.930557,202.100143 183.955521,200.584778 184.016907,199.095566 
	C185.310913,167.695282 181.023117,136.123337 186.905640,104.864456 
	C186.905640,104.864456 186.933838,104.952362 187.178589,104.801697 
	C187.564392,104.035797 187.705444,103.420570 187.846497,102.805336 
	C187.846497,102.805336 187.884094,102.922379 188.127090,102.790810 
	C188.540344,102.051697 188.710602,101.444160 188.880859,100.836617 
	C188.880859,100.836617 188.913025,100.938919 189.151947,100.803352 
	C189.569046,100.073685 189.747238,99.479591 189.925415,98.885498 
	C189.925430,98.885498 189.974731,98.967880 190.296097,98.924644 
	C191.041107,97.869667 191.464767,96.857925 191.888428,95.846184 
	C191.888428,95.846184 191.918839,95.933586 192.139694,95.819405 
	C192.470734,95.352608 192.580917,94.999992 192.691116,94.647385 
	C192.691116,94.647385 192.608841,94.710991 192.800446,94.725548 
	C193.123596,94.703384 193.255112,94.666664 193.386642,94.629944 
	C193.254700,94.417824 193.122772,94.205704 192.990845,93.993591 
z"/>
<path fill="#070707" opacity="1.000000" stroke="none" 
	d="
M628.581177,190.597504 
	C629.199280,190.280212 629.932251,189.644470 629.936096,189.004349 
	C630.004944,177.509689 629.985413,166.014526 629.985596,154.519455 
	C629.985596,153.353302 629.557861,151.903381 630.093445,151.086716 
	C630.920410,149.825684 632.392212,148.241470 633.620483,148.215607 
	C634.684998,148.193207 636.720947,150.131195 636.738098,151.227478 
	C636.963989,165.716782 636.988525,180.211533 636.797363,194.701416 
	C636.778564,196.126770 634.973511,198.740402 634.049316,198.717453 
	C631.136292,198.645142 627.338684,198.490356 625.546997,196.701370 
	C622.235291,193.394730 620.080505,188.920898 617.486511,184.905655 
	C611.150330,175.097748 604.838501,165.274094 597.998108,154.651077 
	C597.998108,168.257111 598.034180,181.091370 597.950928,193.924850 
	C597.940918,195.469833 597.728577,197.436829 596.786743,198.417984 
	C596.038818,199.197189 593.851074,199.211761 592.645813,198.721695 
	C591.815735,198.384155 591.140015,196.606949 591.132141,195.468140 
	C591.033936,181.141632 590.999084,166.813354 591.179382,152.488419 
	C591.197754,151.027557 592.504150,148.544067 593.574219,148.328400 
	C596.896667,147.658768 600.622192,147.035873 603.018311,150.691208 
	C606.361938,155.791992 609.730774,160.877060 613.012329,166.017670 
	C618.160706,174.082703 623.245178,182.188522 628.581177,190.597504 
z"/>
<path fill="#070606" opacity="1.000000" stroke="none" 
	d="
M751.859009,149.956650 
	C762.221802,155.471344 765.230042,164.687515 764.733521,175.075302 
	C764.223755,185.738419 759.723999,194.172165 748.180115,197.298889 
	C750.509888,200.106812 752.912537,202.743256 754.983765,205.618423 
	C755.890930,206.877747 756.121338,208.624619 756.659058,210.150085 
	C754.658813,210.183334 752.658264,210.238846 750.658325,210.223816 
	C750.385193,210.221786 749.998596,209.929504 749.859741,209.667969 
	C745.618652,201.679901 738.232666,200.098053 730.033936,198.386841 
	C716.293396,195.519012 709.889465,184.115387 712.064941,168.166733 
	C713.866394,154.959824 722.480530,148.108078 736.161499,147.221649 
	C741.190735,146.895767 746.372375,148.922348 751.859009,149.956650 
M718.957886,170.270920 
	C717.118652,177.226822 720.691406,186.815338 726.563538,190.682877 
	C739.350037,199.104492 755.006042,192.359726 757.651123,176.920776 
	C759.305359,167.265549 754.831970,154.955215 742.453491,152.995224 
	C729.373047,150.924088 720.748047,156.982880 718.957886,170.270920 
z"/>
<path fill="#070606" opacity="1.000000" stroke="none" 
	d="
M866.413696,198.886673 
	C856.487305,199.002045 846.996338,198.876617 837.512390,199.079132 
	C833.987000,199.154388 832.887817,197.947861 832.925598,194.477509 
	C833.075928,180.662918 833.060730,166.845093 832.936951,153.029984 
	C832.905701,149.537491 833.798279,147.822403 837.693176,147.922287 
	C846.010742,148.135620 854.341492,147.858017 862.656921,148.109055 
	C864.131348,148.153595 865.557861,149.782974 867.006531,150.680511 
	C865.577820,151.809830 864.188599,153.851395 862.713623,153.915314 
	C855.101196,154.245209 847.466736,154.068436 839.630249,154.068436 
	C839.630249,159.403824 839.630249,164.330307 839.630249,169.928345 
	C846.412292,169.928345 853.167114,169.863693 859.919434,169.966888 
	C862.004333,169.998749 864.966431,168.920868 864.989807,172.825760 
	C865.011902,176.523727 862.337219,175.926163 860.061218,175.930206 
	C853.263000,175.942245 846.464844,175.934509 839.571289,175.934509 
	C839.571289,181.579453 839.571289,186.858215 839.571289,192.874786 
	C847.558167,192.874786 855.457153,192.833496 863.355408,192.889572 
	C868.450806,192.925735 869.023804,193.957672 866.413696,198.886673 
z"/>
<path fill="#A8B5BE" opacity="1.000000" stroke="none" 
	d="
M346.108673,136.063568 
	C346.378967,142.651947 347.120972,149.269333 346.718353,155.816330 
	C346.520416,159.035522 344.050842,161.548859 339.768463,161.241180 
	C334.642548,160.872910 329.469391,161.193771 324.317200,161.151810 
	C318.756683,161.106537 317.124725,159.661835 316.999512,154.109238 
	C316.868561,148.300400 317.075348,142.483963 317.669922,136.206757 
	C318.456573,135.136719 318.707794,134.530777 318.958984,133.924835 
	C318.958984,133.924835 318.993408,133.992188 319.293030,133.960449 
	C320.043304,133.508392 320.493927,133.088058 320.944580,132.667725 
	C326.994293,132.437958 333.044037,132.208191 339.642639,132.184631 
	C340.450531,132.288834 340.709595,132.186813 340.968628,132.084808 
	C341.532867,132.160965 342.097076,132.237106 342.974487,132.833893 
	C343.875366,133.561447 344.463074,133.768387 345.050751,133.975311 
	C345.050751,133.975311 345.000427,133.999680 345.025574,134.294189 
	C345.403351,135.080338 345.756012,135.571960 346.108673,136.063568 
z"/>
<path fill="#A8B4BD" opacity="1.000000" stroke="none" 
	d="
M274.001099,178.399658 
	C274.082062,173.661896 276.007233,171.789902 280.532288,171.898880 
	C285.453827,172.017410 290.398956,171.400528 295.325562,171.002380 
	C301.877380,170.472900 304.109680,172.468582 304.119751,179.067261 
	C304.126862,183.718948 303.995575,188.373749 304.127045,193.021484 
	C304.257935,197.647095 301.873199,199.831589 297.558350,199.963394 
	C292.081085,200.130722 286.583862,200.220551 281.115723,199.941849 
	C275.967560,199.679459 274.125183,197.500565 274.029205,192.311340 
	C273.946259,187.827225 274.005310,183.340469 274.001099,178.399658 
z"/>
<path fill="#A8B4BD" opacity="1.000000" stroke="none" 
	d="
M303.077606,158.498291 
	C301.661621,159.364868 300.277313,160.912094 298.824188,160.979660 
	C292.679749,161.265427 286.514648,161.078873 280.357574,161.128372 
	C276.132019,161.162338 274.257294,158.634857 274.088074,154.912735 
	C273.838898,149.432129 273.616638,143.886139 274.224487,138.462296 
	C274.467621,136.292786 276.863739,132.702118 278.423706,132.623795 
	C286.114716,132.237549 293.853973,132.812286 301.889038,133.639008 
	C302.496796,134.478790 302.791718,134.727509 303.086609,134.976227 
	C303.086609,134.976227 303.012787,134.987488 303.011963,135.429977 
	C303.033325,143.414413 303.055450,150.956345 303.077606,158.498291 
z"/>
<path fill="#A8B4BD" opacity="1.000000" stroke="none" 
	d="
M232.112488,153.023163 
	C232.074631,148.311172 232.036758,143.599197 232.282959,138.245941 
	C232.693512,137.042648 232.819992,136.480637 232.946472,135.918625 
	C232.946487,135.918625 232.978165,135.987228 233.214218,135.833725 
	C233.622757,135.099625 233.795258,134.519043 233.967758,133.938446 
	C233.967758,133.938446 233.997849,133.996780 234.365952,133.994995 
	C236.149918,133.358475 237.565781,132.723755 238.981628,132.089020 
	C245.120468,132.117477 251.259293,132.145950 257.762512,132.636963 
	C258.412476,133.079819 258.698059,133.060120 258.983673,133.040405 
	C259.610382,133.554825 260.764984,134.050034 260.784515,134.586548 
	C261.070740,142.450699 261.297546,150.320923 261.247772,158.187881 
	C261.242188,159.066208 259.455109,160.693039 258.503571,160.686142 
	C250.454224,160.627731 242.407028,160.270233 234.163254,159.243378 
	C233.349030,156.663864 232.730759,154.843506 232.112488,153.023163 
z"/>
<path fill="#070606" opacity="1.000000" stroke="none" 
	d="
M816.014160,147.989471 
	C817.547485,149.056839 819.588745,150.125565 819.588684,151.194260 
	C819.588501,161.979935 820.095947,172.867935 818.800171,183.525253 
	C817.186829,196.793900 804.832764,201.154282 794.877747,199.600479 
	C780.321228,197.328461 775.695435,190.823166 775.692993,175.709518 
	C775.691589,166.601028 775.692749,157.492554 775.692749,148.567535 
	C780.774658,146.937759 782.259521,148.553909 782.095581,153.153778 
	C781.805176,161.303680 781.654724,169.491058 782.096191,177.627457 
	C782.884827,192.162979 792.275452,196.287048 803.423950,193.057693 
	C809.195435,191.385895 812.934326,185.381699 812.973633,178.427490 
	C813.022583,169.767838 812.864807,161.104324 813.104980,152.451035 
	C813.146851,150.942627 814.712708,149.476486 816.014160,147.989471 
z"/>
<path fill="#030303" opacity="1.000000" stroke="none" 
	d="
M578.997009,150.967804 
	C577.500732,152.294739 576.033203,153.896179 574.512329,153.948608 
	C566.884216,154.211487 559.242249,154.069077 551.306763,154.069077 
	C551.306763,159.353836 551.306763,164.407928 551.306763,169.949417 
	C558.455688,169.949417 565.567078,169.824921 572.666870,170.056259 
	C574.058289,170.101593 576.435974,171.382401 576.567749,172.339859 
	C576.888916,174.673889 575.547241,176.089767 572.651184,175.999985 
	C565.666077,175.783463 558.669739,175.929794 551.342896,175.929794 
	C551.342896,181.387161 551.342896,186.800583 551.342896,192.892029 
	C558.397217,192.892029 565.647034,192.888123 572.896912,192.895233 
	C574.395020,192.896698 576.019897,192.589996 577.351257,193.073105 
	C578.419373,193.460693 579.962524,194.997726 579.815063,195.724503 
	C579.568054,196.942200 578.163940,198.836411 577.209595,198.858704 
	C567.389648,199.088226 557.559326,199.107117 547.741455,198.835648 
	C546.721130,198.807434 544.922791,196.539841 544.904358,195.290344 
	C544.690857,180.805298 544.772034,166.316147 544.718750,151.828308 
	C544.708862,149.145294 545.726318,147.928116 548.546875,147.958618 
	C557.538513,148.055862 566.533997,147.903061 575.521973,148.108032 
	C576.699463,148.134903 577.842285,149.683975 578.997009,150.967804 
z"/>
<path fill="#030303" opacity="1.000000" stroke="none" 
	d="
M454.309631,154.069229 
	C453.275635,154.698517 452.250031,155.317993 452.229156,155.969666 
	C452.086243,160.426666 452.154205,164.890427 452.154205,169.789856 
	C460.551941,169.789856 468.628204,169.789856 476.677429,169.789856 
	C478.159332,174.078339 477.452301,176.155243 472.718048,175.986954 
	C466.072662,175.750702 459.412537,175.927261 452.459961,175.927261 
	C452.459961,181.435745 452.459961,186.830841 452.459961,192.890228 
	C460.520386,192.890228 468.608215,192.894440 476.696045,192.887512 
	C478.965546,192.885574 481.473816,192.920593 480.854553,196.119415 
	C480.637726,197.239288 478.848755,198.852554 477.746277,198.877991 
	C468.263489,199.096893 458.769775,199.128021 449.290436,198.844284 
	C448.122070,198.809296 446.052094,196.612564 446.032776,195.391769 
	C445.801270,180.747543 445.796051,166.097122 446.030701,151.453094 
	C446.049469,150.282333 448.249542,148.188095 449.487671,148.148697 
	C458.467072,147.862869 467.462738,147.884247 476.444702,148.126022 
	C477.652344,148.158539 478.812134,149.968262 479.994080,150.955017 
	C478.747803,151.983597 477.536713,153.847977 476.249481,153.902084 
	C469.104156,154.202530 461.940338,154.063156 454.309631,154.069229 
z"/>
<path fill="#060606" opacity="1.000000" stroke="none" 
	d="
M523.839905,162.678406 
	C525.209961,159.110596 526.715332,155.984909 527.623901,152.694427 
	C528.880310,148.144165 531.609802,147.061798 536.492432,148.536804 
	C534.323242,153.874466 532.186218,159.117722 530.060974,164.365692 
	C526.062073,174.240494 522.049255,184.109741 518.087830,193.999557 
	C516.925293,196.901886 515.614502,199.075668 511.806305,199.128937 
	C507.982330,199.182449 506.633759,196.942688 505.417999,194.139862 
	C498.965454,179.264191 492.523590,164.383881 486.085175,149.521637 
	C490.072937,146.831360 492.476990,147.209656 494.241669,151.228455 
	C500.162018,164.711105 505.917328,178.266190 512.014709,192.441925 
	C515.968872,182.502777 519.838928,172.774902 523.839905,162.678406 
z"/>
<path fill="#A8B5BE" opacity="1.000000" stroke="none" 
	d="
M236.008926,171.982269 
	C243.113480,171.901978 250.218018,171.821686 257.849426,172.147858 
	C258.946411,172.683136 259.516541,172.811951 260.086700,172.940765 
	C260.086700,172.940765 260.014923,172.998413 260.013702,173.432724 
	C260.011322,181.917969 260.010193,189.968903 260.009064,198.019836 
	C260.009064,198.019836 259.999023,197.998779 259.539062,197.999344 
	C250.700531,198.009842 242.321915,198.019760 233.943314,198.029694 
	C233.943314,198.029694 233.998322,198.001816 233.997620,197.555649 
	C233.981628,189.046295 233.966324,180.983109 233.951019,172.919922 
	C233.951019,172.919922 233.991241,172.991928 234.266876,172.973145 
	C235.031296,172.630310 235.520111,172.306290 236.008926,171.982269 
z"/>
<path fill="#0B0B0B" opacity="1.000000" stroke="none" 
	d="
M678.820068,154.047623 
	C675.381775,154.047256 672.413574,154.047256 668.982300,154.047256 
	C668.982300,167.733490 669.061646,181.163956 668.870483,194.590576 
	C668.849304,196.077087 667.575073,198.460007 666.378662,198.839157 
	C663.161011,199.858917 662.153137,197.876312 662.181152,194.713348 
	C662.299316,181.391006 662.231140,168.067017 662.231140,154.033279 
	C658.157593,154.033279 654.035828,154.385910 650.024780,153.873032 
	C648.226685,153.643143 646.650208,151.679718 644.973206,150.502945 
	C646.629517,149.661621 648.271423,148.126617 649.944519,148.091766 
	C660.600403,147.869858 671.265381,147.871414 681.921326,148.091080 
	C683.569031,148.125061 685.185913,149.658401 686.817017,150.498352 
	C685.140930,151.680786 683.526245,152.969986 681.755737,153.988159 
	C681.129456,154.348312 680.123047,154.047211 678.820068,154.047623 
z"/>
<path fill="#DB17D0" opacity="1.000000" stroke="none" 
	d="
M392.993622,106.997742 
	C391.626984,105.073112 390.332886,103.091660 388.879364,101.235046 
	C385.236450,96.582016 382.039398,91.405136 377.693237,87.525284 
	C373.110565,83.434280 367.784851,78.764740 362.111420,77.587120 
	C348.420105,74.745247 334.447296,72.673080 320.233521,74.796303 
	C315.933777,75.438591 311.366669,74.008972 306.927979,74.058609 
	C295.425293,74.187202 283.923584,74.869347 272.426605,74.765160 
	C268.800720,74.732307 265.307892,73.136719 262.857544,77.286118 
	C262.667419,77.608025 260.587189,76.813759 259.179504,75.988083 
	C258.701447,74.980408 258.429321,74.522919 258.157196,74.065430 
	C260.250031,73.391891 262.339966,72.142822 264.436127,72.132248 
	C290.424896,72.001183 316.414612,72.025711 342.404022,72.060585 
	C365.736389,72.091896 384.763062,84.785027 393.633423,106.651138 
	C393.421478,107.005791 392.993622,106.997749 392.993622,106.997742 
z"/>
<path fill="#0C0C0C" opacity="1.000000" stroke="none" 
	d="
M700.825012,174.000046 
	C700.827942,181.307892 700.782715,188.116287 700.858521,194.923340 
	C700.886230,197.413467 700.445312,199.072189 697.384399,199.075058 
	C694.282043,199.077972 693.946411,197.339157 693.954041,194.891693 
	C693.998718,180.611923 694.002625,166.331833 693.952881,152.052109 
	C693.944214,149.561234 694.377502,147.965744 697.433777,147.908203 
	C700.663879,147.847366 700.852966,149.743744 700.847473,152.080231 
	C700.830627,159.220154 700.830994,166.360107 700.825012,174.000046 
z"/>
<path fill="#FE5B0E" opacity="1.000000" stroke="none" 
	d="
M186.609741,105.079865 
	C181.023117,136.123337 185.310913,167.695282 184.016907,199.095566 
	C183.955521,200.584778 183.930557,202.100143 184.131042,203.570267 
	C184.529709,206.493622 185.722137,208.275116 189.280762,208.084000 
	C194.909836,207.781677 200.568222,208.025391 206.695038,208.084167 
	C205.602203,208.764969 204.055298,209.851974 202.449722,209.946960 
	C198.133926,210.202286 193.792969,210.051987 189.462189,210.028824 
	C183.926102,209.999191 182.069183,208.187439 182.051529,202.556244 
	C182.006088,188.064499 182.028412,173.572540 182.027954,159.080658 
	C182.027618,148.919693 181.495026,138.720474 182.211731,128.610062 
	C182.766739,120.780876 184.888550,113.062759 186.609741,105.079865 
z"/>
<path fill="#0DC1C3" opacity="1.000000" stroke="none" 
	d="
M220.066010,277.373779 
	C252.689774,277.393219 285.492523,277.752625 318.772827,278.238342 
	C317.642426,278.918823 316.036163,279.950348 314.426300,279.956055 
	C287.094696,280.052856 259.761932,280.117065 232.431442,279.917236 
	C228.364136,279.887482 224.306900,278.482483 220.066010,277.373779 
z"/>
<path fill="#FE5B0E" opacity="1.000000" stroke="none" 
	d="
M207.471344,207.967743 
	C207.086823,180.594788 206.848297,153.011841 207.195755,125.436302 
	C207.251877,120.983391 209.914810,116.563316 211.741730,112.094688 
	C211.056808,117.833214 209.176315,123.593285 209.093430,129.379105 
	C208.751312,153.257034 208.984665,177.142899 208.906830,201.025497 
	C208.899506,203.271561 208.193558,205.515366 207.471344,207.967743 
z"/>
<path fill="#5611A7" opacity="1.000000" stroke="none" 
	d="
M371.590759,146.715912 
	C371.965332,172.647400 371.979736,198.875061 371.961121,225.102692 
	C371.960083,226.572647 371.686798,228.042404 371.219788,229.794189 
	C370.846710,226.761398 370.749939,223.446686 370.748596,220.131958 
	C370.739563,197.561539 370.739990,174.991089 370.775452,152.420715 
	C370.778259,150.617599 371.067413,148.814941 371.590759,146.715912 
z"/>
<path fill="#540CA9" opacity="1.000000" stroke="none" 
	d="
M396.900208,232.454742 
	C396.558899,231.337753 396.039490,229.761917 396.037018,228.185257 
	C395.994537,201.332153 396.016144,174.478958 396.039337,147.131165 
	C396.370087,148.188217 396.957184,149.739426 396.959717,151.291595 
	C397.003357,178.192825 396.975189,205.094193 396.900208,232.454742 
z"/>
<path fill="#9BAAB5" opacity="1.000000" stroke="none" 
	d="
M234.182251,198.339386 
	C242.321915,198.019760 250.700531,198.009842 259.549622,198.004532 
	C259.378693,198.493484 258.727936,199.410095 258.097351,199.396469 
	C250.203598,199.225632 242.312759,198.920090 234.182251,198.339386 
z"/>
<path fill="#9BAAB5" opacity="1.000000" stroke="none" 
	d="
M233.620331,173.137085 
	C233.966324,180.983109 233.981628,189.046295 233.983582,197.583099 
	C233.328873,196.776077 232.104492,195.477646 232.142883,194.217712 
	C232.355057,187.258041 232.875107,180.307739 233.620331,173.137085 
z"/>
<path fill="#1BC4C6" opacity="1.000000" stroke="none" 
	d="
M183.667526,224.486801 
	C184.983276,231.999710 185.975174,239.682663 186.941620,247.803345 
	C183.529373,240.712326 180.575729,233.117920 183.667526,224.486801 
z"/>
<path fill="#9BAAB5" opacity="1.000000" stroke="none" 
	d="
M260.319031,197.783813 
	C260.010193,189.968903 260.011322,181.917969 260.035095,173.391983 
	C260.652161,173.860992 261.787109,174.823624 261.755402,175.746170 
	C261.505646,183.017700 261.032990,190.281570 260.319031,197.783813 
z"/>
<path fill="#D202C2" opacity="1.000000" stroke="none" 
	d="
M258.093811,97.412689 
	C270.090515,97.366295 282.265350,97.674408 294.439575,98.005493 
	C296.407257,98.058998 298.372192,98.214554 300.646179,98.595695 
	C288.096008,98.915657 275.237946,99.000404 262.380310,98.955254 
	C261.009430,98.950439 259.641205,98.186569 258.093811,97.412689 
z"/>
<path fill="#6B33B2" opacity="1.000000" stroke="none" 
	d="
M337.539368,255.047150 
	C337.703217,261.771271 337.532013,268.713745 337.017151,275.940521 
	C336.850372,269.238373 337.027313,262.251953 337.539368,255.047150 
z"/>
<path fill="#D202C2" opacity="1.000000" stroke="none" 
	d="
M312.502991,98.926514 
	C314.429504,98.577782 316.818848,98.040077 319.207886,98.041580 
	C328.588654,98.047462 337.969360,98.223244 347.654724,98.613403 
	C336.294830,98.922356 324.630249,98.953827 312.502991,98.926514 
z"/>
<path fill="#FE4605" opacity="1.000000" stroke="none" 
	d="
M241.436493,96.878639 
	C240.777039,89.612137 240.471832,82.086792 240.224518,74.119682 
	C240.864639,74.927322 241.928986,76.169449 241.947968,77.427353 
	C242.044464,83.822586 241.870178,90.221909 241.436493,96.878639 
z"/>
<path fill="#D202C2" opacity="1.000000" stroke="none" 
	d="
M257.840973,74.348587 
	C258.429321,74.522919 258.701447,74.980408 258.985565,75.717438 
	C258.664948,80.880669 258.301483,85.762558 258.015778,90.648987 
	C257.909149,92.472221 257.984039,94.306053 257.962585,96.610092 
	C257.807587,89.600677 257.666168,82.116211 257.840973,74.348587 
z"/>
<path fill="#9BAAB5" opacity="1.000000" stroke="none" 
	d="
M303.380188,158.144379 
	C303.055450,150.956345 303.033325,143.414413 303.030762,135.397705 
	C303.261139,142.545441 303.471924,150.167969 303.380188,158.144379 
z"/>
<path fill="#FE4605" opacity="1.000000" stroke="none" 
	d="
M240.048965,73.413101 
	C236.069870,73.721413 231.870255,73.709625 227.363495,73.429977 
	C231.313736,73.139091 235.571075,73.116058 240.048965,73.413101 
z"/>
<path fill="#1BC4C6" opacity="1.000000" stroke="none" 
	d="
M209.896881,235.811829 
	C208.905090,234.112366 207.787857,232.117294 207.052216,229.990280 
	C206.484695,228.349335 206.396103,226.542725 206.047119,224.408142 
	C206.930710,225.717682 208.112976,227.344238 208.725403,229.162720 
	C209.401367,231.169846 209.554703,233.352966 209.896881,235.811829 
z"/>
<path fill="#D202C2" opacity="1.000000" stroke="none" 
	d="
M373.124878,130.448334 
	C379.945099,130.079651 387.040283,130.050674 394.610718,130.035278 
	C387.857269,130.295242 380.628540,130.541626 373.124878,130.448334 
z"/>
<path fill="#FE4605" opacity="1.000000" stroke="none" 
	d="
M225.598389,73.433731 
	C221.472000,75.176521 216.992218,77.006241 212.120102,78.754402 
	C216.233505,76.955444 220.739258,75.238060 225.598389,73.433731 
z"/>
<path fill="#D202C2" opacity="1.000000" stroke="none" 
	d="
M395.411804,129.907501 
	C395.153046,124.911896 395.258392,119.739143 395.631287,114.299789 
	C395.857880,119.265572 395.816895,124.497963 395.411804,129.907501 
z"/>
<path fill="#FE4605" opacity="1.000000" stroke="none" 
	d="
M223.554596,101.312630 
	C226.700378,100.248070 230.200165,98.949661 233.800964,98.060448 
	C235.494568,97.642220 237.382477,98.010925 239.652924,98.046143 
	C234.732330,99.128342 229.341156,100.187424 223.554596,101.312630 
z"/>
<path fill="#6B33B2" opacity="1.000000" stroke="none" 
	d="
M350.050690,252.674042 
	C348.461731,253.273331 346.509949,254.251312 344.454102,254.582016 
	C342.953583,254.823364 341.315979,254.212036 339.314087,253.958038 
	C342.473541,253.548630 346.058411,253.161972 350.050690,252.674042 
z"/>
<path fill="#D202C2" opacity="1.000000" stroke="none" 
	d="
M369.159241,115.387360 
	C372.321960,116.292419 372.316223,118.757797 371.302979,121.740196 
	C370.411560,119.906807 369.791138,117.832100 369.159241,115.387360 
z"/>
<path fill="#04BEC0" opacity="1.000000" stroke="none" 
	d="
M232.565704,253.066879 
	C230.024902,252.691177 227.095078,252.259872 224.093048,251.473480 
	C226.739456,251.749344 229.458054,252.380325 232.565704,253.066879 
z"/>
<path fill="#9BAAB5" opacity="1.000000" stroke="none" 
	d="
M232.072601,153.410645 
	C232.730759,154.843506 233.349030,156.663864 233.935287,158.922760 
	C233.279739,157.506927 232.656219,155.652527 232.072601,153.410645 
z"/>
<path fill="#D202C2" opacity="1.000000" stroke="none" 
	d="
M350.299042,99.177345 
	C351.965393,99.395752 353.917725,99.820992 355.930054,100.587921 
	C354.188385,100.414467 352.386719,99.899323 350.299042,99.177345 
z"/>
<path fill="#04BEC0" opacity="1.000000" stroke="none" 
	d="
M318.979004,254.648453 
	C317.426270,254.625626 315.796204,254.236435 314.093750,253.484848 
	C315.648132,253.508987 317.274933,253.895538 318.979004,254.648453 
z"/>
<path fill="#9BAAB5" opacity="1.000000" stroke="none" 
	d="
M238.626724,132.055786 
	C237.565781,132.723755 236.149918,133.358475 234.336670,133.980164 
	C235.383469,133.318924 236.827652,132.670715 238.626724,132.055786 
z"/>
<path fill="#D202C2" opacity="1.000000" stroke="none" 
	d="
M366.908264,110.380013 
	C367.539368,111.139160 368.256073,112.220901 368.973083,113.694611 
	C368.313507,112.958595 367.653687,111.830605 366.908264,110.380013 
z"/>
<path fill="#D202C2" opacity="1.000000" stroke="none" 
	d="
M361.203461,104.256775 
	C361.979126,104.488075 362.927856,104.968666 363.888428,105.808029 
	C363.059021,105.613228 362.217804,105.059647 361.203461,104.256775 
z"/>
<path fill="#1BC4C6" opacity="1.000000" stroke="none" 
	d="
M187.130035,249.317398 
	C187.721680,249.809921 188.339005,250.613235 188.929199,251.775299 
	C188.319946,251.298782 187.737839,250.463486 187.130035,249.317398 
z"/>
<path fill="#FE5B0E" opacity="1.000000" stroke="none" 
	d="
M217.756897,105.338150 
	C218.136673,104.408813 218.770569,103.345459 219.716888,102.437668 
	C220.042770,102.790657 220.056229,102.988075 220.069687,103.185493 
	C219.383453,103.858376 218.697220,104.531258 217.756897,105.338150 
z"/>
<path fill="#FE5B0E" opacity="1.000000" stroke="none" 
	d="
M191.611603,96.000534 
	C191.464767,96.857925 191.041107,97.869667 190.251068,98.907997 
	C190.368042,98.008026 190.851410,97.081459 191.611603,96.000534 
z"/>
<path fill="#D202C2" opacity="1.000000" stroke="none" 
	d="
M363.925110,106.396408 
	C364.544922,106.831863 365.258545,107.562859 365.982880,108.658813 
	C365.335358,108.246506 364.677124,107.469231 363.925110,106.396408 
z"/>
<path fill="#0DC1C3" opacity="1.000000" stroke="none" 
	d="
M319.734497,278.236755 
	C319.656128,277.630554 319.831238,276.920227 320.308838,276.125916 
	C320.403564,276.738831 320.195740,277.435760 319.734497,278.236755 
z"/>
<path fill="#FE4605" opacity="1.000000" stroke="none" 
	d="
M220.383057,103.112175 
	C220.056229,102.988075 220.042770,102.790657 220.014923,102.296783 
	C220.867294,101.712669 221.734055,101.425011 222.945801,101.218262 
	C222.426025,101.879059 221.561234,102.458954 220.383057,103.112175 
z"/>
<path fill="#D202C2" opacity="1.000000" stroke="none" 
	d="
M305.428558,98.925240 
	C306.202423,98.708351 307.365295,98.549736 308.741791,98.629372 
	C307.909454,98.906258 306.863525,98.944893 305.428558,98.925240 
z"/>
<path fill="#D202C2" opacity="1.000000" stroke="none" 
	d="
M371.059143,126.381760 
	C371.397247,126.842354 371.680054,127.648674 371.934448,128.797638 
	C371.605286,128.336014 371.304565,127.531754 371.059143,126.381760 
z"/>
<path fill="#FE5B0E" opacity="1.000000" stroke="none" 
	d="
M214.724304,108.325081 
	C214.903244,107.757538 215.332733,107.059174 216.110779,106.442184 
	C215.964508,107.080460 215.469681,107.637360 214.724304,108.325081 
z"/>
<path fill="#FE4605" opacity="1.000000" stroke="none" 
	d="
M211.416321,78.592743 
	C211.283051,78.971909 210.852081,79.414810 210.066162,79.791458 
	C210.180344,79.368965 210.649460,79.012726 211.416321,78.592743 
z"/>
<path fill="#9BAAB5" opacity="1.000000" stroke="none" 
	d="
M235.693451,171.932556 
	C235.520111,172.306290 235.031296,172.630310 234.230835,172.953079 
	C234.405441,172.595490 234.891708,172.239166 235.693451,171.932556 
z"/>
<path fill="#FE5B0E" opacity="1.000000" stroke="none" 
	d="
M212.332703,111.952820 
	C212.261292,111.517403 212.453552,110.925087 212.948990,110.213791 
	C213.033569,110.661850 212.814972,111.228889 212.332703,111.952820 
z"/>
<path fill="#9BAAB5" opacity="1.000000" stroke="none" 
	d="
M259.933594,172.674316 
	C259.516541,172.811951 258.946411,172.683136 258.204407,172.310364 
	C258.615204,172.180237 259.197876,172.294037 259.933594,172.674316 
z"/>
<path fill="#FE5B0E" opacity="1.000000" stroke="none" 
	d="
M213.428299,110.073776 
	C213.379868,109.603554 213.593781,109.000229 214.158234,108.399429 
	C214.236053,108.914856 213.963348,109.427765 213.428299,110.073776 
z"/>
<path fill="#FE5B0E" opacity="1.000000" stroke="none" 
	d="
M188.610214,100.993958 
	C188.710602,101.444160 188.540344,102.051697 188.065704,102.787971 
	C187.954056,102.328232 188.146805,101.739761 188.610214,100.993958 
z"/>
<path fill="#1BC4C6" opacity="1.000000" stroke="none" 
	d="
M188.891296,252.348999 
	C189.205078,252.520142 189.565201,252.993256 189.927750,253.786850 
	C189.599335,253.621872 189.268478,253.136398 188.891296,252.348999 
z"/>
<path fill="#FE5B0E" opacity="1.000000" stroke="none" 
	d="
M187.578888,102.972870 
	C187.705444,103.420570 187.564392,104.035797 187.132462,104.803207 
	C186.998154,104.350388 187.154724,103.745392 187.578888,102.972870 
z"/>
<path fill="#9BAAB5" opacity="1.000000" stroke="none" 
	d="
M318.679077,134.078735 
	C318.707794,134.530777 318.456573,135.136719 317.868561,135.841278 
	C317.820892,135.370804 318.110046,134.801727 318.679077,134.078735 
z"/>
<path fill="#9BAAB5" opacity="1.000000" stroke="none" 
	d="
M346.109985,135.745056 
	C345.756012,135.571960 345.403351,135.080338 345.037720,134.269043 
	C345.386932,134.441772 345.749115,134.934158 346.109985,135.745056 
z"/>
<path fill="#9BAAB5" opacity="1.000000" stroke="none" 
	d="
M232.710602,136.097412 
	C232.819992,136.480637 232.693512,137.042648 232.331726,137.778931 
	C232.222534,137.394211 232.348633,136.835190 232.710602,136.097412 
z"/>
<path fill="#9BAAB5" opacity="1.000000" stroke="none" 
	d="
M233.711029,134.104187 
	C233.795258,134.519043 233.622757,135.099625 233.176575,135.830429 
	C233.086685,135.410400 233.270493,134.840164 233.711029,134.104187 
z"/>
<path fill="#FE5B0E" opacity="1.000000" stroke="none" 
	d="
M189.670471,99.055237 
	C189.747238,99.479591 189.569046,100.073685 189.098328,100.802948 
	C189.009033,100.367073 189.212280,99.796021 189.670471,99.055237 
z"/>
<path fill="#9BAAB5" opacity="1.000000" stroke="none" 
	d="
M344.881500,133.720673 
	C344.463074,133.768387 343.875366,133.561447 343.164490,133.054611 
	C343.598297,132.991821 344.155273,133.228928 344.881500,133.720673 
z"/>
<path fill="#FE4605" opacity="1.000000" stroke="none" 
	d="
M209.520248,79.664810 
	C209.357651,80.024788 208.886459,80.441071 208.063873,80.784554 
	C208.212219,80.381538 208.711929,80.051331 209.520248,79.664810 
z"/>
<path fill="#9BAAB5" opacity="1.000000" stroke="none" 
	d="
M320.646851,132.759506 
	C320.493927,133.088058 320.043304,133.508392 319.258972,133.943970 
	C319.399933,133.589920 319.874512,133.220596 320.646851,132.759506 
z"/>
<path fill="#D202C2" opacity="1.000000" stroke="none" 
	d="
M394.997559,110.750031 
	C394.844543,110.739983 394.707916,110.484581 394.721558,110.131508 
	C394.871826,110.033836 395.013947,110.504677 394.997559,110.750031 
z"/>
<path fill="#1BC4C6" opacity="1.000000" stroke="none" 
	d="
M190.689560,255.486420 
	C190.878143,255.447266 191.108322,255.610748 191.171906,255.886566 
	C191.005310,255.998886 190.731155,255.689056 190.689560,255.486420 
z"/>
<path fill="#6B33B2" opacity="1.000000" stroke="none" 
	d="
M338.689087,253.949173 
	C338.758698,254.175888 338.557648,254.476959 338.085022,254.852402 
	C338.015137,254.625687 338.216797,254.324615 338.689087,253.949173 
z"/>
<path fill="#1BC4C6" opacity="1.000000" stroke="none" 
	d="
M189.943161,254.315735 
	C190.167435,254.266174 190.449036,254.489197 190.767136,254.990189 
	C190.535919,255.041550 190.268204,254.814941 189.943161,254.315735 
z"/>
<path fill="#D202C2" opacity="1.000000" stroke="none" 
	d="
M371.933044,129.319031 
	C372.146606,129.252869 372.448364,129.454163 372.841644,129.919586 
	C372.629181,129.984634 372.325256,129.785553 371.933044,129.319031 
z"/>
<path fill="#9BAAB5" opacity="1.000000" stroke="none" 
	d="
M340.734039,132.053040 
	C340.709595,132.186813 340.450531,132.288834 340.110352,132.233368 
	C340.029205,132.075867 340.499451,132.021271 340.734039,132.053040 
z"/>
<path fill="#1BC4C6" opacity="1.000000" stroke="none" 
	d="
M210.889877,238.668915 
	C210.636429,238.721558 210.358948,238.458603 209.949142,237.930710 
	C210.166489,237.894943 210.516159,238.124115 210.889877,238.668915 
z"/>
<path fill="#1BC4C6" opacity="1.000000" stroke="none" 
	d="
M209.803848,237.492111 
	C209.570221,237.468414 209.337982,237.260620 209.395798,237.006271 
	C209.685852,236.959717 209.805237,237.308029 209.803848,237.492111 
z"/>
<path fill="#FE5B0E" opacity="1.000000" stroke="none" 
	d="
M216.726929,106.342239 
	C216.608307,106.083389 216.712433,105.727531 217.130951,105.402313 
	C217.396515,105.774773 217.231293,106.045532 216.726929,106.342239 
z"/>
<path fill="#FE4605" opacity="1.000000" stroke="none" 
	d="
M240.306488,98.050018 
	C240.239166,97.835533 240.437393,97.535774 240.895355,97.140594 
	C240.960739,97.351700 240.766388,97.658218 240.306488,98.050018 
z"/>
<path fill="#FE5B0E" opacity="1.000000" stroke="none" 
	d="
M192.447998,94.776062 
	C192.580917,94.999992 192.470734,95.352608 192.093445,95.818390 
	C191.952515,95.589279 192.078705,95.247009 192.447998,94.776062 
z"/>
<path fill="#D202C2" opacity="1.000000" stroke="none" 
	d="
M393.109924,107.220978 
	C392.993622,106.997749 393.421478,107.005791 393.635376,107.010849 
	C393.849274,107.015907 394.016052,107.486969 394.036682,107.735947 
	C393.780304,107.804688 393.503265,107.624443 393.109924,107.220978 
z"/>
<path fill="#FE5B0E" opacity="1.000000" stroke="none" 
	d="
M192.839920,94.115013 
	C193.122772,94.205704 193.254700,94.417824 193.386642,94.629944 
	C193.255112,94.666664 193.123596,94.703384 192.788651,94.674904 
	C192.585236,94.609703 192.688995,94.236443 192.839920,94.115013 
z"/>
<path fill="#9BAAB5" opacity="1.000000" stroke="none" 
	d="
M258.759277,132.940338 
	C258.698059,133.060120 258.412476,133.079819 258.098938,132.888718 
	C258.071014,132.677902 258.534851,132.840256 258.759277,132.940338 
z"/>
<path fill="#9BAAB5" opacity="1.000000" stroke="none" 
	d="
M302.992004,134.704407 
	C302.791718,134.727509 302.496796,134.478790 302.134705,133.936859 
	C302.344147,133.906631 302.620789,134.169601 302.992004,134.704407 
z"/>
<path fill="#FE4605" opacity="1.000000" stroke="none" 
	d="
M207.478943,80.648018 
	C207.535263,80.845322 207.388672,81.098404 207.120300,81.185898 
	C206.998520,81.020309 207.276001,80.703796 207.478943,80.648018 
z"/>
<path fill="#FDFDFD" opacity="1.000000" stroke="none" 
	d="
M718.981812,169.858551 
	C720.748047,156.982880 729.373047,150.924088 742.453491,152.995224 
	C754.831970,154.955215 759.305359,167.265549 757.651123,176.920776 
	C755.006042,192.359726 739.350037,199.104492 726.563538,190.682877 
	C720.691406,186.815338 717.118652,177.226822 718.981812,169.858551 
z"/>
</svg>