<?xml version="1.0" encoding="UTF-8"?>
<svg version="1.1" xmlns="http://www.w3.org/2000/svg" width="1024" height="1024">
<path d="M0 0 C1.1255706 -0.00306656 1.1255706 -0.00306656 2.27388 -0.00619507 C4.74924289 -0.00919694 7.22393514 0.00927044 9.69921875 0.02832031 C11.43212723 0.0313819 13.16503819 0.03325498 14.89794922 0.03399658 C18.53281058 0.03859755 22.16745016 0.05300501 25.80224609 0.07519531 C30.42723306 0.10330828 35.05204448 0.11439101 39.67710876 0.11887741 C44.1220007 0.12407762 48.56685008 0.1385943 53.01171875 0.15332031 C54.26053329 0.1561414 54.26053329 0.1561414 55.53457642 0.15901947 C77.43591902 0.22286525 96.96478115 1.15150631 113.76171875 17.16894531 C123.59458942 27.6163704 128.1576894 39.50223814 129.69921875 53.66503906 C129.25332234 57.50532191 128.36597199 58.86930087 125.38671875 61.35644531 C122.03814379 62.0939109 118.80294387 62.05465014 115.38671875 61.98144531 C114.484375 62.00078125 113.58203125 62.02011719 112.65234375 62.04003906 C106.13619103 61.99184267 106.13619103 61.99184267 102.8203125 59.18066406 C101.28428348 56.15464504 100.77125307 53.90986564 100.44921875 50.54394531 C99.45966068 43.48683381 97.09146307 38.99001215 92.01171875 34.04394531 C85.6990005 29.9857693 80.77985291 28.91563632 73.40966797 28.97167969 C72.10344986 28.96362053 72.10344986 28.96362053 70.77084351 28.95539856 C68.89118536 28.94565827 67.01148245 28.94266501 65.13180161 28.945755 C62.15561331 28.95024936 59.18001442 28.93618852 56.20388794 28.9173584 C48.8168224 28.87442869 41.42977095 28.86332068 34.04260254 28.85113525 C27.78991259 28.83960682 21.53749293 28.81605368 15.28491592 28.77644348 C12.35502006 28.76287415 9.4254899 28.767043 6.49557495 28.77185059 C4.69870537 28.76251071 2.90183984 28.75234207 1.10498047 28.74121094 C-0.11390869 28.75043327 -0.11390869 28.75043327 -1.35742188 28.75984192 C-5.93380376 28.71005811 -8.99764644 28.2551276 -12.61328125 25.35644531 C-14.81419179 19.25181451 -14.39031461 9.50123963 -12.61328125 3.35644531 C-8.58972557 0.17320599 -4.94534458 -0.06507173 0 0 Z " fill="#C739E3" transform="translate(267.61328125,408.6435546875)"/>
<path d="M0 0 C1.4729906 3.78634122 1.22077513 7.93003986 1.25 11.9375 C1.270625 12.64068359 1.29125 13.34386719 1.3125 14.06835938 C1.34629557 18.5758436 0.79256994 21.42795059 -2 25 C-4.53484947 26.26742474 -6.8146134 26.4318527 -9.625 26.8125 C-17.33476899 28.10360964 -22.63041231 29.65821822 -27.375 36.125 C-33.3405391 44.95666403 -32.25127663 56.53716914 -32.15032959 66.72014809 C-32.12453908 69.34774125 -32.11170661 71.97512988 -32.10205078 74.60282898 C-32.07933974 80.17281212 -32.04080935 85.74262395 -32 91.3125 C-31.95271494 97.78846718 -31.9120045 104.26433914 -31.88812256 110.74043846 C-31.87519315 113.3246749 -31.85019025 115.90861343 -31.82470703 118.49275208 C-31.81744181 120.0776036 -31.81073836 121.66245783 -31.8046875 123.24731445 C-31.79435486 123.96168671 -31.78402222 124.67605896 -31.77337646 125.41207886 C-31.77253767 129.37164439 -32.09432838 132.49417121 -34 136 C-40.08068164 139.27421319 -48.42164995 138.73651319 -55.0625 137.375 C-58 136 -58 136 -59.16741943 133.39599609 C-60.08873292 129.6380691 -60.28116085 126.13041594 -60.25878906 122.2890625 C-60.2622937 121.54014236 -60.26579834 120.79122223 -60.26940918 120.01960754 C-60.2781772 117.55464269 -60.27239005 115.08996758 -60.265625 112.625 C-60.2669742 110.89591416 -60.26891685 109.16682869 -60.27142334 107.43774414 C-60.2743689 103.81311431 -60.27009944 100.18858317 -60.26074219 96.56396484 C-60.24941636 91.95587175 -60.25586684 87.34801345 -60.26788712 82.7399292 C-60.27517974 79.16561171 -60.27278301 75.59134809 -60.26763153 72.01702881 C-60.26631182 70.32045462 -60.26788276 68.6238753 -60.27259064 66.92730713 C-60.31353371 48.00748531 -59.19377104 30.79648509 -46 16 C-45.21689453 15.07767578 -45.21689453 15.07767578 -44.41796875 14.13671875 C-34.91057566 3.70403193 -14.13456515 -7.06728257 0 0 Z " fill="#FD723D" transform="translate(241,411)"/>
<path d="M0 0 C1.66869141 -0.02126953 1.66869141 -0.02126953 3.37109375 -0.04296875 C7.68494662 0.26855796 10.48969628 1.11469628 13.5625 4.1875 C13.92272048 6.07151027 14.20340667 7.97120017 14.4375 9.875 C15.5712678 17.16599905 17.61293649 22.52767535 23.79211426 27.13356018 C33.3474734 32.82202301 45.02321887 31.62834331 55.71875 31.62890625 C57.67265812 31.64069051 59.62655728 31.65405729 61.58044434 31.66893005 C66.69563123 31.70494639 71.8107385 31.72527469 76.92602539 31.74047852 C85.14083501 31.76541644 93.35546915 31.80482514 101.57011414 31.86237907 C104.4385895 31.87873428 107.30689876 31.88248653 110.17541504 31.88539124 C111.92228489 31.89516087 113.66915207 31.90542304 115.41601562 31.91625977 C116.21597961 31.91370682 117.0159436 31.91115387 117.84014893 31.90852356 C123.33500796 31.96000796 123.33500796 31.96000796 125.5625 34.1875 C127.01816377 41.45208617 128.31882387 51.50959091 124.5625 58.1875 C121.27007635 59.83371182 117.60877709 59.35296315 113.98876953 59.36450195 C113.10067093 59.37107315 112.21257233 59.37764435 111.29756165 59.38441467 C108.34681109 59.40418434 105.39611173 59.41582347 102.4453125 59.42578125 C100.93148798 59.43189454 100.93148798 59.43189454 99.38708115 59.43813133 C94.03702752 59.45901582 88.68699967 59.47330261 83.33691406 59.48266602 C77.83160341 59.49368614 72.32670191 59.52802817 66.82153511 59.56783772 C62.57304175 59.59410472 58.32464391 59.60236718 54.07607651 59.60594749 C52.04847349 59.61079387 50.02087417 59.62235165 47.99335098 59.64098549 C30.36105562 59.79285348 15.76874581 57.21183444 2.21484375 44.93359375 C-7.16920576 35.0171159 -13.63935046 21.77371628 -13.3984375 7.9453125 C-13.05130922 4.84687122 -12.67765733 3.42765733 -10.4375 1.1875 C-7.01187743 -0.03205271 -3.60841859 0.02085791 0 0 Z " fill="#21BED7" transform="translate(194.4375,558.8125)"/>
<path d="M0 0 C0.87591797 -0.00064453 1.75183594 -0.00128906 2.65429688 -0.00195312 C3.56115234 0.01802734 4.46800781 0.03800781 5.40234375 0.05859375 C6.31306641 0.05150391 7.22378906 0.04441406 8.16210938 0.03710938 C14.67296053 0.09948304 14.67296053 0.09948304 17.08862305 1.53613281 C19.03908133 4.59140678 18.84175041 7.77100939 18.88671875 11.2890625 C18.91815475 12.48615341 18.91815475 12.48615341 18.95022583 13.70742798 C19.01379023 16.36609889 19.05344298 19.02441993 19.08984375 21.68359375 C19.10597717 22.59748871 19.1221106 23.51138367 19.13873291 24.45297241 C19.39308228 39.021329 19.43072562 53.59579021 19.25061035 68.16519165 C19.22698438 70.24159618 19.21081063 72.31810044 19.20251465 74.3946228 C19.09872472 93.98417993 15.2241179 107.13203466 1.46484375 121.80859375 C-8.16614529 130.97114947 -20.00152211 135.75140295 -33.22265625 136.05859375 C-34.2593042 136.09895752 -34.2593042 136.09895752 -35.31689453 136.14013672 C-37.2890625 136.125 -37.2890625 136.125 -40.66015625 135.49609375 C-43.776558 132.2357618 -44.02565762 129.03691886 -44.02148438 124.61328125 C-44.00537109 123.91460938 -43.98925781 123.2159375 -43.97265625 122.49609375 C-43.97587891 121.79742188 -43.97910156 121.09875 -43.98242188 120.37890625 C-43.94056045 116.34498678 -43.57773184 113.07376129 -41.66015625 109.49609375 C-38.7232694 108.02765032 -35.79301211 108.03010526 -32.53515625 107.68359375 C-24.1441259 106.63459055 -18.54155809 105.23829212 -13.22265625 98.43359375 C-9.71050601 93.4476802 -9.51435574 89.19006863 -9.51831055 83.23266602 C-9.51483612 82.39009247 -9.51136169 81.54751892 -9.50778198 80.67941284 C-9.5004293 78.84932172 -9.49508131 77.01922171 -9.49149132 75.18911934 C-9.48432795 72.29348121 -9.46866331 69.39801273 -9.45014954 66.50242615 C-9.39766664 58.26946301 -9.34967891 50.03659372 -9.33422852 41.8034668 C-9.32415944 36.76831947 -9.29486486 31.73360015 -9.25290871 26.69862175 C-9.24058091 24.77890189 -9.23548069 22.85912163 -9.23770714 20.93936348 C-9.2400544 18.25541443 -9.21793921 15.57269865 -9.19018555 12.88891602 C-9.20008766 11.697286 -9.20008766 11.697286 -9.21018982 10.48158264 C-9.14942446 6.90810842 -8.95883902 4.88948211 -6.7671814 2.00289917 C-4.29336918 0.23379183 -3.01685623 -0.00700673 0 0 Z " fill="#9557DF" transform="translate(377.66015625,482.50390625)"/>
<path d="M0 0 C3.54728208 2.70455761 5.87590143 5.79369168 8.12109375 9.6171875 C9.04921875 11.1640625 9.04921875 11.1640625 9.99609375 12.7421875 C12.73579723 19.91135171 12.08391336 28.93589859 9.55859375 36.0546875 C7.34095046 40.87945265 4.09110552 44.17520685 0.12109375 47.6171875 C-0.53890625 48.2771875 -1.19890625 48.9371875 -1.87890625 49.6171875 C0.43109375 51.9271875 2.74109375 54.2371875 5.12109375 56.6171875 C3.98091373 60.03772756 3.19650857 60.8598076 0.12109375 62.6171875 C-1.87890625 62.6171875 -1.87890625 62.6171875 -3.87890625 61.6171875 C-7.87890625 57.28385417 -7.87890625 57.28385417 -7.87890625 54.6171875 C-8.53890625 54.6171875 -9.19890625 54.6171875 -9.87890625 54.6171875 C-10.20890625 53.9571875 -10.53890625 53.2971875 -10.87890625 52.6171875 C-13.05420369 52.24529133 -15.24636897 51.97030378 -17.44140625 51.7421875 C-26.26198984 50.56909466 -32.07113358 48.58938506 -37.62890625 41.4609375 C-42.19023358 34.73297969 -43.53531246 27.5561663 -42.4765625 19.58984375 C-40.61249181 10.84305049 -37.3126983 4.63442642 -29.75390625 -0.3203125 C-20.90362852 -5.5629469 -8.76937376 -5.09746849 0 0 Z M-29.62890625 10.3671875 C-34.40298752 17.26308266 -34.33064891 23.62050499 -32.87890625 31.6171875 C-31.02142916 36.89633291 -28.33059774 39.43740787 -23.87890625 42.6171875 C-18.86821652 44.78848638 -12.70558186 44.10612702 -7.62890625 42.4296875 C-3.10908217 40.54199626 -0.91158265 37.7689096 1.1953125 33.37890625 C3.21065354 27.36689732 3.2668573 20.09711121 1.28125 14.06640625 C-1.10534148 9.79946996 -4.13958095 7.14939108 -8.6328125 5.23828125 C-16.83943039 2.968973 -23.57014787 4.30842912 -29.62890625 10.3671875 Z " fill="#060606" transform="translate(752.87890625,487.3828125)"/>
<path d="M0 0 C2.10697199 2.19526994 3.60806131 4.06033433 5.25 6.5625 C5.70963135 7.22564209 6.1692627 7.88878418 6.64282227 8.57202148 C7.61446088 9.97912562 8.57659147 11.39283615 9.52978516 12.8125 C11.00308134 15.00458465 12.50283234 17.17604025 14.01171875 19.34375 C18.07128225 25.18821363 22.05262434 31.07893651 26 37 C26.33 24.79 26.66 12.58 27 0 C29.64 -0.33 32.28 -0.66 35 -1 C35.98466253 1.95398758 36.12127836 3.85249022 36.11352539 6.93041992 C36.11344986 7.93123093 36.11337433 8.93204193 36.11329651 9.96318054 C36.10813522 11.04138565 36.10297394 12.11959076 36.09765625 13.23046875 C36.0962413 14.33602615 36.09482635 15.44158356 36.09336853 16.5806427 C36.08776514 20.11628917 36.07521204 23.65187262 36.0625 27.1875 C36.05748544 29.58268138 36.05292246 31.97786375 36.04882812 34.37304688 C36.03779461 40.24871947 36.02105316 46.12435523 36 52 C34.54342131 52.20322202 33.08524172 52.39499657 31.62646484 52.58178711 C30.81462738 52.68978134 30.00278992 52.79777557 29.16635132 52.90904236 C27 53 27 53 24.9765625 51.69140625 C24.53054688 50.98886719 24.08453125 50.28632812 23.625 49.5625 C23.06554687 48.72976563 22.50609375 47.89703125 21.9296875 47.0390625 C21.29289063 46.03617188 20.65609375 45.03328125 20 44 C19.17483383 42.79564872 18.34371153 41.59536441 17.5078125 40.3984375 C15.7353728 37.8572704 13.9757588 35.30864204 12.234375 32.74609375 C7.51147885 25.81575701 2.75125926 18.91092256 -2 12 C-2 24.87 -2 37.74 -2 51 C-9 53 -9 53 -11 52 C-11 34.84 -11 17.68 -11 0 C-6.61782146 -1.09554464 -4.3418021 -1.1802497 0 0 Z " fill="#060607" transform="translate(600,485)"/>
<path d="M0 0 C1.02006889 0.00068733 1.02006889 0.00068733 2.06074524 0.00138855 C3.49209345 0.00440027 4.9234387 0.01225416 6.35473633 0.0246582 C8.55366513 0.0429928 10.75217437 0.04516722 12.95117188 0.04492188 C23.71574438 0.08293188 23.71574438 0.08293188 24.86328125 1.23046875 C25.00443286 3.90105726 24.90575232 6.55479113 24.86328125 9.23046875 C21.80408737 10.25020004 19.739101 10.34580477 16.5390625 10.328125 C15.51103516 10.32490234 14.48300781 10.32167969 13.42382812 10.31835938 C12.35197266 10.30998047 11.28011719 10.30160156 10.17578125 10.29296875 C9.09232422 10.28845703 8.00886719 10.28394531 6.89257812 10.27929688 C4.21612231 10.26750632 1.53969486 10.24957083 -1.13671875 10.23046875 C-1.13671875 14.19046875 -1.13671875 18.15046875 -1.13671875 22.23046875 C0.27222656 22.21886719 1.68117188 22.20726562 3.1328125 22.1953125 C4.98046743 22.18593354 6.82812378 22.17683345 8.67578125 22.16796875 C9.60455078 22.15958984 10.53332031 22.15121094 11.49023438 22.14257812 C12.38291016 22.13935547 13.27558594 22.13613281 14.1953125 22.1328125 C15.42858276 22.12495728 15.42858276 22.12495728 16.68676758 22.11694336 C18.86328125 22.23046875 18.86328125 22.23046875 21.86328125 23.23046875 C21.90582481 25.23001621 21.90408908 27.23088511 21.86328125 29.23046875 C20.86328125 30.23046875 20.86328125 30.23046875 18.63842773 30.34399414 C17.68009033 30.33875732 16.72175293 30.33352051 15.734375 30.328125 C14.18266602 30.32329102 14.18266602 30.32329102 12.59960938 30.31835938 C11.51099609 30.30998047 10.42238281 30.30160156 9.30078125 30.29296875 C7.66206055 30.28620117 7.66206055 30.28620117 5.99023438 30.27929688 C3.28122693 30.26746715 0.57224745 30.24953106 -2.13671875 30.23046875 C-2.13671875 35.51046875 -2.13671875 40.79046875 -2.13671875 46.23046875 C-0.77546875 45.87984375 0.58578125 45.52921875 1.98828125 45.16796875 C9.73655858 43.59617535 18.24922334 44.03626979 25.86328125 46.23046875 C25.86328125 48.54046875 25.86328125 50.85046875 25.86328125 53.23046875 C20.2430084 54.92908905 14.3018038 54.41491543 8.48828125 54.41796875 C7.26882813 54.43021484 6.049375 54.44246094 4.79296875 54.45507812 C3.02179687 54.45797852 3.02179687 54.45797852 1.21484375 54.4609375 C-0.39656494 54.46710083 -0.39656494 54.46710083 -2.04052734 54.47338867 C-5.13671875 54.23046875 -5.13671875 54.23046875 -11.13671875 52.23046875 C-11.13671875 35.73046875 -11.13671875 19.23046875 -11.13671875 2.23046875 C-6.82288813 0.07355344 -4.74279976 -0.01532747 0 0 Z " fill="#080809" transform="translate(842.13671875,483.76953125)"/>
<path d="M0 0 C0 2.64 0 5.28 0 8 C-2.71401294 9.35700647 -4.84846316 9.1123861 -7.8828125 9.09765625 C-9.04941406 9.09443359 -10.21601563 9.09121094 -11.41796875 9.08789062 C-12.64128906 9.07951172 -13.86460937 9.07113281 -15.125 9.0625 C-16.35605469 9.05798828 -17.58710938 9.05347656 -18.85546875 9.04882812 C-21.90369392 9.0370133 -24.95182314 9.02054028 -28 9 C-27.67 12.63 -27.34 16.26 -27 20 C-20.40061539 20.77639819 -14.01566777 21.07293081 -7.37109375 20.9375 C-5 21 -5 21 -4 22 C-3.875 25 -3.875 25 -4 28 C-5 29 -5 29 -7.22485352 29.11352539 C-8.18319092 29.10828857 -9.14152832 29.10305176 -10.12890625 29.09765625 C-11.68061523 29.09282227 -11.68061523 29.09282227 -13.26367188 29.08789062 C-14.35228516 29.07951172 -15.44089844 29.07113281 -16.5625 29.0625 C-18.2012207 29.05573242 -18.2012207 29.05573242 -19.87304688 29.04882812 C-22.58205432 29.0369984 -25.2910338 29.01906231 -28 29 C-27.67 33.95 -27.34 38.9 -27 44 C-24.32777344 43.98259766 -24.32777344 43.98259766 -21.6015625 43.96484375 C-19.27604271 43.95546665 -16.95052179 43.94636637 -14.625 43.9375 C-12.8615625 43.92493164 -12.8615625 43.92493164 -11.0625 43.91210938 C-9.94101562 43.90888672 -8.81953125 43.90566406 -7.6640625 43.90234375 C-6.10872803 43.89448853 -6.10872803 43.89448853 -4.52197266 43.88647461 C-2 44 -2 44 0 45 C0 47.31 0 49.62 0 52 C-8.22201321 52.86874102 -16.42461216 53.15862313 -24.6875 53.25 C-26.15823975 53.2819043 -26.15823975 53.2819043 -27.65869141 53.31445312 C-28.57956543 53.31896484 -29.50043945 53.32347656 -30.44921875 53.328125 C-31.27768311 53.3374707 -32.10614746 53.34681641 -32.9597168 53.35644531 C-33.63301025 53.23881836 -34.30630371 53.12119141 -35 53 C-37.10588208 49.84117688 -37.24935191 49.10418055 -37.24291992 45.50024414 C-37.24599655 44.59242691 -37.24907318 43.68460968 -37.25224304 42.74928284 C-37.24505753 41.77112106 -37.23787201 40.79295929 -37.23046875 39.78515625 C-37.23001053 38.77786972 -37.22955231 37.77058319 -37.2290802 36.73277283 C-37.22605837 34.60186587 -37.21817414 32.47096112 -37.20581055 30.34008789 C-37.18759139 27.07885911 -37.18530065 23.81791492 -37.18554688 20.55664062 C-37.1806301 18.48697671 -37.17480108 16.41731473 -37.16796875 14.34765625 C-37.16685593 13.37151871 -37.1657431 12.39538116 -37.16459656 11.3896637 C-37.15821671 10.47869431 -37.15183685 9.56772491 -37.14526367 8.62915039 C-37.14145187 7.82989639 -37.13764008 7.0306424 -37.13371277 6.20716858 C-37.00124383 4.02053162 -36.60302862 2.10133159 -36 0 C-10.5 -1.55555556 -10.5 -1.55555556 0 0 Z " fill="#0A0A0C" transform="translate(480,485)"/>
<path d="M0 0 C4.64477144 -0.02472039 9.28950457 -0.04286968 13.93432617 -0.05493164 C15.51441108 -0.05996014 17.09449134 -0.06678378 18.67456055 -0.07543945 C20.94581246 -0.08756992 23.21700285 -0.09324313 25.48828125 -0.09765625 C26.19463211 -0.10281754 26.90098297 -0.10797882 27.6287384 -0.11329651 C30.70254391 -0.11364803 33.0590442 0.0196814 36 1 C36 3.64 36 6.28 36 9 C32.8815675 10.0394775 30.72524414 10.11494838 27.45703125 10.09765625 C26.38388672 10.09443359 25.31074219 10.09121094 24.20507812 10.08789062 C23.08552734 10.07951172 21.96597656 10.07113281 20.8125 10.0625 C19.68134766 10.05798828 18.55019531 10.05347656 17.38476562 10.04882812 C14.58982124 10.03703511 11.79490401 10.01909957 9 10 C9 13.63 9 17.26 9 21 C11.45275141 22.2263757 13.0505781 22.11415314 15.7890625 22.09765625 C17.20058594 22.09282227 17.20058594 22.09282227 18.640625 22.08789062 C19.62546875 22.07951172 20.6103125 22.07113281 21.625 22.0625 C23.11386719 22.05573242 23.11386719 22.05573242 24.6328125 22.04882812 C27.0886016 22.03702145 29.54427104 22.020554 32 22 C33.125 27.75 33.125 27.75 32 30 C24.08 30 16.16 30 8 30 C8.33 34.95 8.66 39.9 9 45 C10.69769531 45 12.39539063 45 14.14453125 45 C21.4296875 45 28.71484375 45 36 45 C36 47.64 36 50.28 36 53 C32.04180613 53.17008925 28.08342714 53.33543618 24.125 53.5 C23.01640625 53.54769531 21.9078125 53.59539063 20.765625 53.64453125 C5.39247541 54.27754329 5.39247541 54.27754329 1 54 C0 53 0 53 -0.12025452 50.86766052 C-0.11803391 49.92834183 -0.11581329 48.98902313 -0.11352539 48.02124023 C-0.11344986 46.96021591 -0.11337433 45.89919159 -0.11329651 44.80601501 C-0.10813522 43.651866 -0.10297394 42.49771698 -0.09765625 41.30859375 C-0.0962413 40.13361832 -0.09482635 38.95864288 -0.09336853 37.74806213 C-0.08774992 33.97784936 -0.07519426 30.20769496 -0.0625 26.4375 C-0.0574874 23.88867273 -0.05292408 21.33984453 -0.04882812 18.79101562 C-0.03777444 12.52732367 -0.02101821 6.26366601 0 0 Z " fill="#060607" transform="translate(543,484)"/>
<path d="M0 0 C2.97 0.99 5.94 1.98 9 3 C8.98428955 4.40693115 8.98428955 4.40693115 8.96826172 5.84228516 C8.93405388 9.34231045 8.90903998 12.8421565 8.89013672 16.34228516 C8.88011661 17.85338149 8.86649679 19.36445862 8.84912109 20.87548828 C8.82469608 23.05506142 8.81347693 25.23437684 8.8046875 27.4140625 C8.79421387 28.7232666 8.78374023 30.0324707 8.77294922 31.38134766 C9.07398114 36.17908428 9.88333268 39.67395756 13 43.375 C14.8292145 45.21019754 14.8292145 45.21019754 17 45 C17 45.66 17 46.32 17 47 C24.85265205 46.86570769 24.85265205 46.86570769 32.125 44.3125 C36.03408641 39.49129343 36.22794111 34.54501651 36.08984375 28.51953125 C36.06944155 27.09440417 36.04926587 25.66927384 36.02929688 24.24414062 C35.98566299 22.01881272 35.93704834 19.79371616 35.88354492 17.56860352 C35.83533811 15.40642104 35.80544032 13.24455453 35.77734375 11.08203125 C35.74890381 9.79530518 35.72046387 8.5085791 35.69116211 7.18286133 C36 4 36 4 37.31860352 2.0456543 C39 1 39 1 42.125 1.1875 C43.07375 1.455625 44.0225 1.72375 45 2 C47.20192647 6.40385295 46.26861903 12.3257332 46.29516602 17.21850586 C46.30659691 18.68182107 46.32690503 20.14509758 46.35668945 21.6081543 C46.7582065 41.34081045 46.7582065 41.34081045 40.35351562 48.95825195 C35.19923071 53.91399331 29.12491768 56.09859141 22.0625 56.4375 C14.42585081 56.16769519 8.54178567 53.09294867 3.19140625 47.7578125 C-2.85333453 38.8393425 -1.08270724 24.22356869 -1.125 13.8125 C-1.12967285 13.01110596 -1.1343457 12.20971191 -1.13916016 11.3840332 C-1.12832849 7.45588829 -0.96840987 3.83521053 0 0 Z " fill="#050505" transform="translate(774,483)"/>
<path d="M0 0 C1.04542969 -0.02835937 2.09085938 -0.05671875 3.16796875 -0.0859375 C10.64692265 -0.10508975 10.64692265 -0.10508975 14.1875 2.40625 C16.06163737 6.82385952 16.08264799 10.74774057 16 15.5 C16.01546875 16.38945312 16.0309375 17.27890625 16.046875 18.1953125 C16.02137148 22.46715272 15.89205293 24.87014447 13.59375 28.5625 C9.66018588 32.20251456 5.86356493 31.71763566 0.75 31.75 C-0.04921875 31.770625 -0.8484375 31.79125 -1.671875 31.8125 C-6.72088204 31.84571715 -10.0961011 31.24205026 -14.5 28.5 C-17.20669812 25.79330188 -16.58020457 18.66831897 -16.625 14.9375 C-16.44327063 4.41536957 -16.44327063 4.41536957 -13.78320312 1.83398438 C-9.54364472 -0.64302024 -4.79272303 -0.01181929 0 0 Z " fill="#BAC5CA" transform="translate(246.5,468.5)"/>
<path d="M0 0 C1.56814453 -0.01643555 1.56814453 -0.01643555 3.16796875 -0.03320312 C10.80199208 0.04010696 10.80199208 0.04010696 13.796875 2.28149414 C15.8065413 4.97305266 16.01410728 6.29931186 16.03125 9.625 C16.03640625 10.58664062 16.0415625 11.54828125 16.046875 12.5390625 C16.03140625 13.53679687 16.0159375 14.53453125 16 15.5625 C16.01546875 16.56023437 16.0309375 17.55796875 16.046875 18.5859375 C16.00798314 25.83926977 16.00798314 25.83926977 13.65625 29.1875 C9.32816621 31.94743749 5.08785261 31.77896721 0.125 31.8125 C-0.63039063 31.833125 -1.38578125 31.85375 -2.1640625 31.875 C-6.80377065 31.90744551 -9.6960809 31.49735893 -13.5 28.5625 C-16.84615364 25.21634636 -15.8689156 20.79200632 -15.875 16.25 C-15.89949219 15.29931641 -15.92398437 14.34863281 -15.94921875 13.36914062 C-15.96631738 9.29111636 -15.77317823 6.21845491 -14.1953125 2.4296875 C-9.77590132 -0.63187561 -5.23750705 -0.11947458 0 0 Z " fill="#BAC6CD" transform="translate(330.5,468.4375)"/>
<path d="M0 0 C5.50940248 -0.3672935 5.50940248 -0.3672935 7.55517578 1.16430664 C9.3922064 3.49831023 10.26765646 5.77435661 11.3046875 8.55859375 C11.72363281 9.66783203 12.14257812 10.77707031 12.57421875 11.91992188 C13.00347656 13.08072266 13.43273437 14.24152344 13.875 15.4375 C17.95302288 29.63234337 17.95302288 29.63234337 25 42 C25.34256836 41.11328613 25.68513672 40.22657227 26.03808594 39.31298828 C27.32720672 35.97665872 28.61710755 32.64063117 29.90722656 29.3046875 C30.46212202 27.86954653 31.01681481 26.43432719 31.57128906 24.99902344 C34.6689403 16.98091536 37.7777699 8.96913688 41 1 C47.625 -0.125 47.625 -0.125 51 1 C49.46732244 5.81442732 47.64030447 10.4502516 45.69921875 15.109375 C45.38096634 15.8762262 45.06271393 16.64307739 44.7348175 17.4331665 C44.06266991 19.05062662 43.38940545 20.66762302 42.71508789 22.28417969 C41.69716521 24.72680717 40.68531102 27.17188757 39.67382812 29.6171875 C36.37368475 37.56088468 32.99176879 45.37162947 29 53 C25.7 53 22.4 53 19 53 C15.92382812 45.6171875 12.84765625 38.234375 9.77148438 30.8515625 C9.43921844 30.05472046 9.10695251 29.25787842 8.76461792 28.43688965 C8.103014 26.84783906 7.44311219 25.25807868 6.78494263 23.66760254 C5.3487769 20.20192861 3.90021167 16.74741894 2.36083984 13.32617188 C1.89500488 12.27494141 1.42916992 11.22371094 0.94921875 10.140625 C0.34146606 8.8107959 0.34146606 8.8107959 -0.27856445 7.45410156 C-1.12166187 4.58614377 -0.81174191 2.84412438 0 0 Z " fill="#060607" transform="translate(486,484)"/>
<path d="M0 0 C1.56814453 -0.02900391 1.56814453 -0.02900391 3.16796875 -0.05859375 C10.60258092 -0.010997 10.60258092 -0.010997 14.1953125 2.53515625 C16.06877113 6.97199988 16.0055584 10.92211844 15.875 15.6875 C15.87371094 16.58533203 15.87242187 17.48316406 15.87109375 18.40820312 C15.7685931 26.06727911 15.7685931 26.06727911 13.5 29.625 C8.77043995 31.85444623 4.13204478 32.02191265 -1 32.0625 C-2.10021484 32.11180664 -2.10021484 32.11180664 -3.22265625 32.16210938 C-7.68753517 32.20603931 -11.03403485 31.64068886 -14.41894531 28.37915039 C-16.72656974 24.63473271 -16.27139989 20.38230881 -16.125 16.125 C-16.13144531 15.18785156 -16.13789063 14.25070312 -16.14453125 13.28515625 C-16.08193028 9.27300322 -15.75272563 6.22167174 -14.1796875 2.5078125 C-9.77826754 -0.58473039 -5.23961509 -0.09691027 0 0 Z " fill="#B9C5CC" transform="translate(288.5,468.375)"/>
<path d="M0 0 C0.85078125 -0.02900391 1.7015625 -0.05800781 2.578125 -0.08789062 C6.78323223 -0.1304657 9.01929004 -0.06509554 12.6640625 2.20703125 C16.49165376 6.31673581 15.87763894 10.25745857 15.9375 15.625 C15.96650391 16.48029297 15.99550781 17.33558594 16.02539062 18.21679688 C16.06618186 22.26767994 15.93185663 24.74053096 13.98828125 28.36328125 C8.10871043 33.21271239 -2.01819186 31.49387272 -9.25390625 30.859375 C-11.94729502 30.16494696 -13.39959403 29.27485263 -15.375 27.3125 C-17.34576587 20.34912727 -16.89246778 11.33620802 -15.375 4.3125 C-11.52970046 -0.72616836 -5.7576109 0.06483796 0 0 Z " fill="#B9C6CB" transform="translate(246.375,507.6875)"/>
<path d="M0 0 C0.75539063 -0.020625 1.51078125 -0.04125 2.2890625 -0.0625 C6.9013233 -0.09475357 9.88779887 0.2546403 13.625 3.25 C16.38720704 7.39331056 15.99268911 10.75594895 16 15.625 C16.02449219 16.47578125 16.04898438 17.3265625 16.07421875 18.203125 C16.09315709 22.25592895 15.93215133 24.69154304 13.94921875 28.296875 C8.6394497 32.7588658 0.22092248 31.4077899 -6.375 31.0625 C-9.6579508 30.68406187 -11.18231148 30.37387119 -14 28.5625 C-16.91718098 23.65633198 -16.48192146 18.1690116 -16.1875 12.625 C-16.13207031 11.33335937 -16.07664062 10.04171875 -16.01953125 8.7109375 C-15.29486682 4.81970913 -14.50024046 3.59250199 -11.375 1.25 C-7.56907507 -0.01864164 -3.96629359 0.02679928 0 0 Z " fill="#B8C6CB" transform="translate(288.375,507.75)"/>
<path d="M0 0 C0.67010101 -0.00095673 1.34020203 -0.00191345 2.03060913 -0.00289917 C3.43739924 -0.00357562 4.84419256 -0.00175891 6.25097656 0.00244141 C8.39915978 0.00781431 10.54713555 0.00246962 12.6953125 -0.00390625 C14.06770879 -0.0032457 15.44010496 -0.00196503 16.8125 0 C18.67189209 0.00169189 18.67189209 0.00169189 20.56884766 0.00341797 C25.33668866 0.19593326 25.33668866 0.19593326 27.7734375 1.1328125 C29.2109375 3.4453125 29.2109375 3.4453125 29.7734375 6.1328125 C28.7834375 7.4528125 27.7934375 8.7728125 26.7734375 10.1328125 C21.8234375 10.1328125 16.8734375 10.1328125 11.7734375 10.1328125 C11.7734375 24.3228125 11.7734375 38.5128125 11.7734375 53.1328125 C6.78642451 54.37956575 6.78642451 54.37956575 3.7734375 53.1328125 C2.4575566 49.1851698 2.65043477 45.42191894 2.67578125 41.30859375 C2.6771962 40.44719284 2.67861115 39.58579193 2.68006897 38.69828796 C2.6856661 35.94726081 2.69821804 33.19631506 2.7109375 30.4453125 C2.71595287 28.5800793 2.72051571 26.71484483 2.72460938 24.84960938 C2.73563458 20.27731239 2.75289723 15.70507625 2.7734375 11.1328125 C-2.5065625 10.4728125 -7.7865625 9.8128125 -13.2265625 9.1328125 C-13.2265625 6.4928125 -13.2265625 3.8528125 -13.2265625 1.1328125 C-8.76490084 0.27194006 -4.54114091 0.00412456 0 0 Z " fill="#060607" transform="translate(656.2265625,483.8671875)"/>
<path d="M0 0 C-0.33 16.83 -0.66 33.66 -1 51 C-3.64 51 -6.28 51 -9 51 C-9 33.84 -9 16.68 -9 -1 C-6 -2 -6 -2 0 0 Z " fill="#040404" transform="translate(701,486)"/>
<path d="M0 0 C0.94101562 0.00322266 1.88203125 0.00644531 2.8515625 0.00976562 C3.83640625 0.01814453 4.82125 0.02652344 5.8359375 0.03515625 C6.82851563 0.03966797 7.82109375 0.04417969 8.84375 0.04882812 C11.2995391 0.0606348 13.75520854 0.07710225 16.2109375 0.09765625 C17.78092584 3.23763293 17.34038295 6.58941986 17.32446289 10.03564453 C17.32460892 10.85523651 17.32475494 11.67482849 17.3249054 12.51925659 C17.32420724 15.23552065 17.31641938 17.95171663 17.30859375 20.66796875 C17.30672923 22.54841067 17.30530548 24.42885308 17.30430603 26.30929565 C17.30048357 31.26427547 17.29065558 36.21922608 17.27960205 41.17419434 C17.26938211 46.2281047 17.26480716 51.28201978 17.25976562 56.3359375 C17.24903309 66.25652326 17.2319599 76.17708733 17.2109375 86.09765625 C16.8809375 86.09765625 16.5509375 86.09765625 16.2109375 86.09765625 C16.2109375 58.70765625 16.2109375 31.31765625 16.2109375 3.09765625 C14.8909375 3.09765625 13.5709375 3.09765625 12.2109375 3.09765625 C12.2109375 2.43765625 12.2109375 1.77765625 12.2109375 1.09765625 C11.4065625 1.26265625 10.6021875 1.42765625 9.7734375 1.59765625 C6.19627906 2.09971358 2.86129058 2.13462628 -0.73828125 2.03515625 C-2.99145665 2.00557531 -2.99145665 2.00557531 -5.7890625 3.09765625 C-5.7890625 30.81765625 -5.7890625 58.53765625 -5.7890625 87.09765625 C-6.1190625 87.09765625 -6.4490625 87.09765625 -6.7890625 87.09765625 C-6.7890625 58.71765625 -6.7890625 30.33765625 -6.7890625 1.09765625 C-4.33631109 -0.12871945 -2.7384844 -0.01649689 0 0 Z " fill="#A857EA" transform="translate(377.7890625,484.90234375)"/>
<path d="M0 0 C0.33 0 0.66 0 1 0 C1.02505615 0.95366455 1.0501123 1.9073291 1.07592773 2.88989258 C1.17012071 6.42909107 1.27031231 9.96809875 1.37231445 13.50708008 C1.41561833 15.03861018 1.45729667 16.57018715 1.49731445 18.10180664 C1.55512732 20.30369182 1.61878969 22.50534211 1.68359375 24.70703125 C1.70030624 25.39150833 1.71701874 26.07598541 1.73423767 26.78120422 C1.8273555 29.77120104 2.04687437 32.14062311 3 35 C3.09506071 36.33913785 3.13802172 37.68241426 3.14526367 39.02490234 C3.15164352 39.82938812 3.15802338 40.6338739 3.16459656 41.46273804 C3.16570938 42.32839386 3.1668222 43.19404968 3.16796875 44.0859375 C3.17129715 44.97987213 3.17462555 45.87380676 3.17805481 46.79483032 C3.18311739 48.68613165 3.18546334 50.5774419 3.18530273 52.46875 C3.18748633 55.35692133 3.20564111 58.2447089 3.22460938 61.1328125 C3.22754404 62.97135286 3.22952835 64.80989504 3.23046875 66.6484375 C3.23765427 67.51004486 3.24483978 68.37165222 3.25224304 69.2593689 C3.2359096 73.5637533 3.18920752 77.15702727 1 81 C-4.10073696 83.74655067 -10.33628816 83.58177101 -16 83 C-17.32 82.34 -18.64 81.68 -20 81 C-10.1 80.505 -10.1 80.505 0 80 C0 53.6 0 27.2 0 0 Z " fill="#F0784B" transform="translate(206,466)"/>
<path d="M0 0 C0.33 0 0.66 0 1 0 C1.08132187 2.56314499 1.14064175 5.12368418 1.1875 7.6875 C1.22520508 8.7693457 1.22520508 8.7693457 1.26367188 9.87304688 C1.32672457 14.47589338 0.77816458 17.30307233 -2 21 C-2.99 20.34 -3.98 19.68 -5 19 C-4.35546875 18.49984375 -3.7109375 17.9996875 -3.046875 17.484375 C-0.34876055 14.20956433 -0.33465669 11.32121729 -0.25 7.25 C-0.22035156 6.55261719 -0.19070312 5.85523438 -0.16015625 5.13671875 C-0.08981542 3.42509187 -0.04260054 1.71254185 0 0 Z " fill="#F27B61" transform="translate(241,415)"/>
<path d="M0 0 C0.99 0.495 0.99 0.495 2 1 C1.97679687 1.56847656 1.95359375 2.13695312 1.9296875 2.72265625 C1.80808312 7.92558648 2.32276508 12.07312243 4 17 C3.01 17 2.02 17 1 17 C-0.18681726 13.43954823 -0.09689832 10.56191663 -0.0625 6.8125 C-0.05347656 5.54019531 -0.04445313 4.26789062 -0.03515625 2.95703125 C-0.02355469 1.98121094 -0.01195312 1.00539063 0 0 Z " fill="#BFCCD2" transform="translate(274,519)"/>
<path d="M0 0 C0.66 0.33 1.32 0.66 2 1 C2 3.31 2 5.62 2 8 C5.3 8.33 8.6 8.66 12 9 C12 9.33 12 9.66 12 10 C8.04 10 4.08 10 0 10 C-1.6415049 6.7169902 -0.51888624 3.57454967 0 0 Z " fill="#8E63E4" transform="translate(336,607)"/>
<path d="M0 0 C2 1 2 1 2 1 Z " fill="#2A2B2C" transform="translate(800,528)"/>
<path d="" fill="#292829" transform="translate(0,0)"/>
<path d="M0 0 C2 1 2 1 2 1 Z " fill="#262527" transform="translate(737,493)"/>
<path d="" fill="#343135" transform="translate(0,0)"/>
<path d="M0 0 C2 1 2 1 2 1 Z " fill="#373538" transform="translate(590,483)"/>
<path d="M0 0 C2 1 2 1 2 1 Z " fill="#353438" transform="translate(632,482)"/>
<path d="M0 0 C2 1 2 1 2 1 Z " fill="#B26BE1" transform="translate(378,481)"/>
<path d="M0 0 C2 1 2 1 2 1 Z " fill="#CC68DC" transform="translate(299,438)"/>
<path d="M0 0 C2 1 2 1 2 1 Z " fill="#EB8B76" transform="translate(234,438)"/>
<path d="" fill="#57B9D6" transform="translate(0,0)"/>
<path d="" fill="#887CDA" transform="translate(0,0)"/>
<path d="" fill="#8E78DA" transform="translate(0,0)"/>
<path d="" fill="#8E7CDC" transform="translate(0,0)"/>
<path d="" fill="#6CBAC4" transform="translate(0,0)"/>
<path d="" fill="#7EBABB" transform="translate(0,0)"/>
<path d="" fill="#90AFAE" transform="translate(0,0)"/>
<path d="" fill="#96AFAA" transform="translate(0,0)"/>
<path d="" fill="#AFAC99" transform="translate(0,0)"/>
<path d="" fill="#B2AD95" transform="translate(0,0)"/>
<path d="" fill="#323233" transform="translate(0,0)"/>
<path d="" fill="#B1A896" transform="translate(0,0)"/>
<path d="" fill="#B0A592" transform="translate(0,0)"/>
<path d="" fill="#2E2B2C" transform="translate(0,0)"/>
<path d="" fill="#5C5175" transform="translate(0,0)"/>
<path d="" fill="#2E2D2D" transform="translate(0,0)"/>
<path d="" fill="#2E2C2D" transform="translate(0,0)"/>
<path d="" fill="#2E2D2D" transform="translate(0,0)"/>
<path d="" fill="#333432" transform="translate(0,0)"/>
<path d="" fill="#323234" transform="translate(0,0)"/>
<path d="" fill="#3E3C40" transform="translate(0,0)"/>
<path d="" fill="#5C5172" transform="translate(0,0)"/>
<path d="" fill="#313033" transform="translate(0,0)"/>
<path d="" fill="#2B2D2F" transform="translate(0,0)"/>
<path d="" fill="#29292B" transform="translate(0,0)"/>
<path d="" fill="#28292A" transform="translate(0,0)"/>
<path d="" fill="#302F36" transform="translate(0,0)"/>
<path d="" fill="#282A2C" transform="translate(0,0)"/>
<path d="" fill="#2D2B31" transform="translate(0,0)"/>
<path d="" fill="#27292B" transform="translate(0,0)"/>
<path d="" fill="#302C31" transform="translate(0,0)"/>
<path d="" fill="#292629" transform="translate(0,0)"/>
<path d="" fill="#2E2D30" transform="translate(0,0)"/>
<path d="" fill="#282724" transform="translate(0,0)"/>
<path d="" fill="#2C2B2C" transform="translate(0,0)"/>
<path d="" fill="#343234" transform="translate(0,0)"/>
<path d="" fill="#35303A" transform="translate(0,0)"/>
<path d="" fill="#212225" transform="translate(0,0)"/>
<path d="" fill="#2C2D31" transform="translate(0,0)"/>
<path d="" fill="#252423" transform="translate(0,0)"/>
<path d="" fill="#272728" transform="translate(0,0)"/>
<path d="" fill="#262426" transform="translate(0,0)"/>
<path d="" fill="#2A2D2F" transform="translate(0,0)"/>
<path d="" fill="#35323A" transform="translate(0,0)"/>
<path d="" fill="#262728" transform="translate(0,0)"/>
<path d="" fill="#BEC7CD" transform="translate(0,0)"/>
<path d="" fill="#2D2B2E" transform="translate(0,0)"/>
<path d="" fill="#2B272B" transform="translate(0,0)"/>
<path d="" fill="#2B2C2E" transform="translate(0,0)"/>
<path d="" fill="#2A2B2D" transform="translate(0,0)"/>
<path d="" fill="#272728" transform="translate(0,0)"/>
<path d="" fill="#272629" transform="translate(0,0)"/>
<path d="" fill="#2B292D" transform="translate(0,0)"/>
<path d="" fill="#2C2C2B" transform="translate(0,0)"/>
<path d="" fill="#2D2C2E" transform="translate(0,0)"/>
<path d="" fill="#343234" transform="translate(0,0)"/>
<path d="" fill="#332F31" transform="translate(0,0)"/>
<path d="" fill="#302D2E" transform="translate(0,0)"/>
<path d="" fill="#333030" transform="translate(0,0)"/>
<path d="" fill="#323132" transform="translate(0,0)"/>
<path d="" fill="#323333" transform="translate(0,0)"/>
<path d="" fill="#333333" transform="translate(0,0)"/>
<path d="" fill="#31302F" transform="translate(0,0)"/>
<path d="" fill="#353436" transform="translate(0,0)"/>
<path d="" fill="#A965D9" transform="translate(0,0)"/>
<path d="" fill="#B071E1" transform="translate(0,0)"/>
<path d="" fill="#373939" transform="translate(0,0)"/>
<path d="" fill="#343332" transform="translate(0,0)"/>
<path d="" fill="#70578A" transform="translate(0,0)"/>
<path d="" fill="#AF67DD" transform="translate(0,0)"/>
<path d="" fill="#AD6CDE" transform="translate(0,0)"/>
<path d="" fill="#B06EDF" transform="translate(0,0)"/>
<path d="" fill="#C1C6CB" transform="translate(0,0)"/>
<path d="" fill="#B765DE" transform="translate(0,0)"/>
<path d="" fill="#B366DA" transform="translate(0,0)"/>
<path d="" fill="#B160D7" transform="translate(0,0)"/>
<path d="" fill="#F28A5B" transform="translate(0,0)"/>
<path d="" fill="#F18C6D" transform="translate(0,0)"/>
<path d="" fill="#CC68DB" transform="translate(0,0)"/>
<path d="" fill="#EC8B6C" transform="translate(0,0)"/>
</svg>
